<?xml version="1.0" encoding="UTF-8"?>
<svg width="762px" height="487px" viewBox="0 0 762 487" version="1.1" xmlns="http://www.w3.org/2000/svg" xmlns:xlink="http://www.w3.org/1999/xlink">
    <!-- Generator: Sketch 52.2 (67145) - http://www.bohemiancoding.com/sketch -->
    <title>Group 4</title>
    <desc>Created with Sketch.</desc>
    <g id="Observatorio" stroke="none" stroke-width="1" fill="none" fill-rule="evenodd">
        <g id="✔️-1400_home" transform="translate(-319.000000, -209.000000)">
            <g id="Cabecera" transform="translate(235.000000, 210.000000)">
                <g id="Group-4" transform="translate(84.000000, 0.000000)">
                    <polygon id="Polygon-Copy-6" stroke="#E5E5E5" opacity="0.200000003" points="381.5 0 591.51116 121.25 591.51116 363.75 381.5 485 171.48884 363.75 171.48884 121.25"></polygon>
                    <polygon id="Polygon-Copy-7" stroke="#E5E5E5" opacity="0.200000003" points="381 30 564.597386 136 564.597386 348 381 454 197.402614 348 197.402614 136"></polygon>
                    <polygon id="Polygon-Copy-8" stroke="#E5E5E5" opacity="0.200000003" points="381 60 538.616623 151 538.616623 333 381 424 223.383377 333 223.383377 151"></polygon>
                    <polygon id="Polygon-Copy-9" stroke="#E5E5E5" opacity="0.200000003" points="380.5 90 511.702849 165.75 511.702849 317.25 380.5 393 249.297151 317.25 249.297151 165.75"></polygon>
                    <polygon id="Polygon-Copy-10" stroke="#E5E5E5" opacity="0.200000003" points="381.5 121 486.722087 181.75 486.722087 303.25 381.5 364 276.277913 303.25 276.277913 181.75"></polygon>
                    <polygon id="Polygon-Copy-11" stroke="#E5E5E5" opacity="0.200000003" points="381 151 459.808312 196.5 459.808312 287.5 381 333 302.191688 287.5 302.191688 196.5"></polygon>
                    <g id="GettyImages-81981585-+-Rectangle-Mask" transform="translate(0.000000, 90.000000)">
                        <path d="M0,260 C10.1603206,135.465465 127.785571,124.924925 127.785571,77.2972973 C127.785571,56.6066066 110.200401,49.5795796 92.2244489,49.5795796 C65.6513026,49.5795796 44.5490982,58.1681682 23.4468938,67.5375375 L8.59719439,21.8618619 C32.4348697,11.3213213 63.6973948,0 102.38477,0 C161.783567,0 190.310621,28.8888889 190.310621,70.6606607 C190.310621,140.15015 94.9599198,165.525526 78.1563126,209.63964 L195,209.63964 L195,260 L0,260 Z M294,264 C232.201613,264 197,218.698225 197,132 C197,45.3017751 232.201613,0 294,0 C355.798387,0 391,45.3017751 391,132 C391,218.698225 355.798387,264 294,264 Z M293.5,215 C322.119318,215 328,188.412322 328,132.5 C328,76.5876777 322.119318,50 293.5,50 C264.880682,50 259,76.5876777 259,132.5 C259,188.412322 264.880682,215 293.5,215 Z M484.677143,260 L484.677143,61.4593373 L425.571429,86.4231928 L406,40.7861446 L499.16,1 L543,1 L543,260 L484.677143,260 Z M662.828685,264 C599.577689,264 566,233.928994 566,191.360947 C566,162.461538 582.398406,139.810651 606.605578,128.094675 L606.605578,127.313609 C589.426295,115.597633 572.63745,101.147929 572.63745,71.8579882 C572.63745,31.2426036 607.776892,0 665.952191,0 C724.12749,0 754.191235,34.3668639 754.191235,67.5621302 C754.191235,98.8047337 733.888446,114.816568 717.099602,124.189349 L717.099602,124.970414 C743.649402,135.905325 762,155.04142 762,185.502959 C762,229.633136 730.374502,264 662.828685,264 Z M665.840659,219 C685.346154,219 699,208.474576 699,190.932203 C699,164.033898 669.351648,156.237288 649.065934,150 C638.923077,155.847458 628,169.101695 628,185.084746 C628,207.694915 645.554945,219 665.840659,219 Z M673.524138,105 C684.137931,97.5490196 692,88.1372549 692,73.627451 C692,58.7254902 681.386207,45 662.124138,45 C645.613793,45 635,56.372549 635,70.4901961 C635,91.6666667 653.868966,99.5098039 673.524138,105 Z" id="Mask-Copy-2" fill="#FFFFFF" opacity="0.200000003"></path>
                        <path d="M0,260 C10.1603206,135.465465 127.785571,124.924925 127.785571,77.2972973 C127.785571,56.6066066 110.200401,49.5795796 92.2244489,49.5795796 C65.6513026,49.5795796 44.5490982,58.1681682 23.4468938,67.5375375 L8.59719439,21.8618619 C32.4348697,11.3213213 63.6973948,0 102.38477,0 C161.783567,0 190.310621,28.8888889 190.310621,70.6606607 C190.310621,140.15015 94.9599198,165.525526 78.1563126,209.63964 L195,209.63964 L195,260 L0,260 Z M294,264 C232.201613,264 197,218.698225 197,132 C197,45.3017751 232.201613,0 294,0 C355.798387,0 391,45.3017751 391,132 C391,218.698225 355.798387,264 294,264 Z M293.5,215 C322.119318,215 328,188.412322 328,132.5 C328,76.5876777 322.119318,50 293.5,50 C264.880682,50 259,76.5876777 259,132.5 C259,188.412322 264.880682,215 293.5,215 Z M484.677143,260 L484.677143,61.4593373 L425.571429,86.4231928 L406,40.7861446 L499.16,1 L543,1 L543,260 L484.677143,260 Z M662.828685,264 C599.577689,264 566,233.928994 566,191.360947 C566,162.461538 582.398406,139.810651 606.605578,128.094675 L606.605578,127.313609 C589.426295,115.597633 572.63745,101.147929 572.63745,71.8579882 C572.63745,31.2426036 607.776892,0 665.952191,0 C724.12749,0 754.191235,34.3668639 754.191235,67.5621302 C754.191235,98.8047337 733.888446,114.816568 717.099602,124.189349 L717.099602,124.970414 C743.649402,135.905325 762,155.04142 762,185.502959 C762,229.633136 730.374502,264 662.828685,264 Z M665.840659,219 C685.346154,219 699,208.474576 699,190.932203 C699,164.033898 669.351648,156.237288 649.065934,150 C638.923077,155.847458 628,169.101695 628,185.084746 C628,207.694915 645.554945,219 665.840659,219 Z M673.524138,105 C684.137931,97.5490196 692,88.1372549 692,73.627451 C692,58.7254902 681.386207,45 662.124138,45 C645.613793,45 635,56.372549 635,70.4901961 C635,91.6666667 653.868966,99.5098039 673.524138,105 Z" id="Mask" fill="#BA9868" style="mix-blend-mode: color;"></path>
                    </g>
                </g>
            </g>
        </g>
    </g>
</svg>