<?xml version="1.0" encoding="UTF-8"?>
<svg width="157px" height="50px" viewBox="0 0 157 50" version="1.1" xmlns="http://www.w3.org/2000/svg" xmlns:xlink="http://www.w3.org/1999/xlink">
    <!-- Generator: Sketch 52.2 (67145) - http://www.bohemiancoding.com/sketch -->
    <title>logo-bestinver</title>
    <desc>Created with Sketch.</desc>
    <g id="Observatorio" stroke="none" stroke-width="1" fill="none" fill-rule="evenodd">
        <g id="✔️-1400_1" transform="translate(-40.000000, -33.000000)" fill="#FFFFFF">
            <g id="logo-bestinver" transform="translate(40.000000, 33.000000)">
                <path d="M112.248498,41.4737769 C112.142498,41.1409369 112.112818,40.6130569 112.112818,39.5827369 L112.112818,36.7546568 C112.112818,34.8784568 111.037978,34.1534167 109.267778,34.1534167 C108.313778,34.1534167 107.421258,34.3039367 106.467258,34.9399368 L107.058738,36.0741368 C107.512418,35.8006568 108.116618,35.5441368 108.905258,35.5441368 C109.659978,35.5441368 110.266298,35.8918168 110.266298,36.7546568 L110.266298,36.9348568 L108.994298,36.9814968 C107.164738,37.0429768 105.998738,37.8443368 105.998738,39.3262168 C105.998738,40.7338969 107.026938,41.6264169 108.345578,41.6264169 C109.297458,41.6264169 109.948298,41.2617769 110.418938,40.8377769 L110.719978,41.4737769 L112.248498,41.4737769 Z M110.266298,39.7353769 C110.024618,39.9452569 109.615458,40.1890569 108.979458,40.1890569 C108.222618,40.1890569 107.813458,39.7798969 107.813458,39.1884168 C107.813458,38.5842168 108.252298,38.2513768 109.238098,38.2216968 L110.266298,38.1920168 L110.266298,39.7353769 Z" id="Fill-80"></path>
                <path d="M116.712582,41.6253569 C114.382702,41.6253569 113.187022,39.9463169 113.187022,37.9344368 C113.187022,35.7571968 114.760062,34.1523567 116.892782,34.1523567 C117.861623,34.1523567 118.527303,34.3940367 118.936463,34.6526767 L118.906783,36.1345568 C118.406463,35.7571968 117.846783,35.5451968 117.106903,35.5451968 C115.879422,35.5451968 115.001742,36.5119168 115.001742,37.8432768 C115.001742,39.0686368 115.667422,40.1583169 117.092063,40.1583169 C117.772583,40.1583169 118.285623,39.9463169 118.785943,39.6579969 L119.239623,40.8536769 C118.665103,41.2479969 117.696263,41.6253569 116.712582,41.6253569" id="Fill-81"></path>
                <path d="M123.158443,41.6253569 C120.828563,41.6253569 119.632883,39.9463169 119.632883,37.9344368 C119.632883,35.7571968 121.208043,34.1523567 123.340763,34.1523567 C124.309603,34.1523567 124.975283,34.3940367 125.384443,34.6526767 L125.352643,36.1345568 C124.852323,35.7571968 124.294763,35.5451968 123.552763,35.5451968 C122.327403,35.5451968 121.449723,36.5119168 121.449723,37.8432768 C121.449723,39.0686368 122.115403,40.1583169 123.537923,40.1583169 C124.218443,40.1583169 124.733603,39.9463169 125.231803,39.6579969 L125.685483,40.8536769 C125.110963,41.2479969 124.144243,41.6253569 123.158443,41.6253569" id="Fill-82"></path>
                <path d="M126.796363,41.4742009 L128.611083,41.4742009 L128.611083,34.3192007 L126.796363,34.3192007 L126.796363,41.4742009 Z M127.703723,33.2146807 C127.082563,33.2146807 126.584363,32.7313207 126.584363,32.1101607 C126.584363,31.5208007 127.082563,31.0204807 127.703723,31.0204807 C128.339723,31.0204807 128.837923,31.5059607 128.837923,32.1101607 C128.837923,32.7164807 128.339723,33.2146807 127.703723,33.2146807 Z" id="Fill-83"></path>
                <path d="M136.885231,37.8746528 C136.885231,36.7828528 136.552391,35.8458128 135.931231,35.1822528 C135.295231,34.5292927 134.402711,34.1519327 133.298191,34.1519327 C132.253031,34.1519327 131.392311,34.5292927 130.756311,35.1652928 C130.088511,35.8458128 129.711151,36.8146528 129.711151,37.9340128 C129.711151,39.0851728 130.105471,40.0667329 130.817791,40.7324129 C131.436831,41.3069329 132.282711,41.6249329 133.283351,41.6249329 C134.358191,41.6249329 135.233751,41.2475729 135.869751,40.5967329 C136.535431,39.9310529 136.885231,38.9643328 136.885231,37.8746528 M135.023871,37.8894928 C135.023871,39.2356928 134.447231,40.2193729 133.313031,40.2193729 C132.208511,40.2193729 131.557671,39.2823328 131.557671,37.8894928 C131.557671,36.5581328 132.117351,35.5892928 133.266391,35.5892928 C134.387871,35.5892928 135.023871,36.5136128 135.023871,37.8894928" id="Fill-84"></path>
                <path d="M142.649935,41.4737769 L142.649935,37.2698168 C142.649935,36.5278168 142.514255,35.7116168 141.589935,35.7116168 C140.953935,35.7116168 140.334895,36.0444568 139.775215,36.4684568 L139.775215,41.4737769 L137.958375,41.4737769 L137.958375,34.3187767 L139.501735,34.3187767 L139.698895,35.0904568 C140.470575,34.5159367 141.242255,34.1534167 142.211095,34.1534167 C143.300775,34.1534167 144.466775,34.8021368 144.466775,36.7249768 L144.466775,41.4737769 L142.649935,41.4737769 Z" id="Fill-85"></path>
                <path d="M151.729471,41.4737769 C151.623471,41.1409369 151.593791,40.6130569 151.593791,39.5827369 L151.593791,36.7546568 C151.593791,34.8784568 150.518951,34.1534167 148.748751,34.1534167 C147.794751,34.1534167 146.902231,34.3039367 145.948231,34.9399368 L146.537591,36.0741368 C146.993391,35.8006568 147.597591,35.5441368 148.386231,35.5441368 C149.140951,35.5441368 149.745151,35.8918168 149.745151,36.7546568 L149.745151,36.9348568 L148.475271,36.9814968 C146.643591,37.0429768 145.479711,37.8443368 145.479711,39.3262168 C145.479711,40.7338969 146.507911,41.6264169 147.824431,41.6264169 C148.778431,41.6264169 149.429271,41.2617769 149.897791,40.8377769 L150.200951,41.4737769 L151.729471,41.4737769 Z M149.745151,39.7353769 C149.505591,39.9452569 149.096431,40.1890569 148.460431,40.1890569 C147.703591,40.1890569 147.294431,39.7798969 147.294431,39.1884168 C147.294431,38.5842168 147.733271,38.2513768 148.719071,38.2216968 L149.745151,38.1920168 L149.745151,39.7353769 Z" id="Fill-86"></path>
                <path d="M102.898662,38.1701808 C102.767222,37.6380608 102.642142,37.1101808 102.527662,36.5844208 C102.319902,35.6261808 102.148182,34.6743007 102.069742,33.7245407 C102.048542,33.4595407 102.037942,33.2072607 102.027342,32.9549807 C102.010382,32.5521807 102.004022,32.1621007 102.010382,31.7932207 C102.023102,31.1360207 102.071862,30.5297007 102.141822,29.9806207 C102.232982,29.2640606 102.383502,28.6577406 102.495862,28.1362206 C102.381382,28.2273806 102.266902,28.3143006 102.152422,28.3969806 C102.023102,28.7828206 101.866222,29.3191806 101.719942,29.9891007 C101.620302,30.4449007 101.527022,30.9664207 101.452822,31.5367007 C100.918582,31.3098607 100.397062,31.0385007 99.9179421,30.7162607 L99.9327821,31.4603807 C100.382222,31.8335007 100.863462,32.1727007 101.357422,32.4758607 C101.287462,33.3238607 101.266262,34.2651407 101.327742,35.2933408 C101.346822,35.6177008 101.374382,35.9378208 101.404062,36.2558208 C100.373742,35.9717408 99.2840621,35.5371408 98.3597421,34.9117408 L98.3724621,35.6579808 C99.3582621,36.4741808 100.488222,37.1335008 101.569422,37.5871808 C101.722062,38.6599008 101.912862,39.7220209 102.090942,40.8011009 C100.683262,40.6124209 98.7837421,40.0993809 97.3061021,39.0987408 L97.3209421,39.8428609 C98.8833821,41.1424209 100.821062,42.0413009 102.328382,42.3444609 C102.635782,44.587421 102.765102,46.944861 102.216022,49.6521011 L103.975622,48.623901 C104.656142,44.784581 103.697902,41.4053009 102.898662,38.1701808" id="Fill-87"></path>
                <path d="M108.009346,27.9922726 C108.009346,27.9922726 108.007226,27.6255126 108.005106,27.4771126 C107.858826,27.4559126 107.496306,27.4007926 107.496306,27.4007926 C106.510506,27.2523926 104.613106,26.7647926 102.965866,25.1705525 C102.965866,25.1705525 102.658466,24.8716325 102.522786,24.7401925 C102.384986,24.8716325 102.077586,25.1705525 102.077586,25.1705525 C100.430346,26.7647926 98.5329461,27.2523926 97.5471461,27.4007926 C97.5471461,27.4007926 97.1846261,27.4559126 97.0383461,27.4771126 C97.0256261,27.6255126 96.9980661,27.9901526 96.9980661,27.9901526 C96.7542661,31.1107927 95.107026,32.6477927 94.146666,33.2880327 C94.146666,33.2880327 93.877426,33.4661127 93.767186,33.5403127 C93.798986,33.6675127 93.875306,33.9812727 93.875306,33.9812727 C94.057626,34.7211527 94.146666,35.3295928 94.146666,35.8426328 C94.146666,37.5153128 93.529746,38.7321928 93.014586,39.4593528 C93.014586,39.4593528 92.857706,39.6798329 92.794106,39.7688729 C92.840746,39.8663929 92.957346,40.1101929 92.957346,40.1101929 C94.420146,43.2117529 98.7025461,45.431393 100.964586,45.473793 L100.922186,45.083713 C99.2028661,45.017993 94.237826,42.1517529 94.341706,39.9087929 L94.341706,39.7731129 L94.343826,39.7688729 C95.073106,38.5795528 95.441986,37.2566728 95.441986,35.8426328 C95.441986,35.4037928 95.378386,34.8801528 95.238466,34.1953927 L95.221506,34.1105927 L95.289346,34.0575927 C96.4023461,33.1905127 97.8121461,31.5559927 98.2064661,28.6897526 L98.2191861,28.5943526 L98.3124661,28.5752726 C99.3682261,28.3484326 100.939146,27.8163126 102.437986,26.5739926 L102.524906,26.4658726 L102.611826,26.5739926 C104.110666,27.8163126 105.709146,28.3696326 106.762786,28.5964726 C106.923906,30.5998727 108.106866,31.4860327 109.103266,31.8824727 C109.177466,31.8188727 109.330106,31.6853127 109.463666,31.5708327 C109.060866,31.2846327 108.028426,30.3327527 108.009346,27.9922726" id="Fill-88"></path>
                <path d="M148.934463,7.61525618 C148.934463,9.33881622 147.687903,10.6171762 145.996143,10.6171762 L144.208983,10.6171762 L144.208983,4.93345612 L146.027943,4.93345612 C147.785423,4.93345612 148.934463,6.08249615 148.934463,7.61525618 Z M156.182743,21.9846165 C153.085423,16.6210164 151.137143,13.1717763 149.988103,12.5018563 L149.988103,12.4700563 C151.840983,11.6072163 153.723543,9.75433623 153.723543,7.07253617 C153.723543,3.7822961 151.679863,0.941496041 145.900743,0.941496041 L139.322383,0.941496041 L139.322383,21.9846165 L144.208983,21.9846165 L144.208983,14.0982163 L145.678143,14.0982163 C146.379863,14.3844163 147.497103,16.4916964 150.658023,21.9846165 L156.182743,21.9846165 Z M136.225063,21.9846165 L136.225063,18.0583764 L128.529463,18.0583764 L128.529463,13.2353763 L135.139623,13.2353763 L135.139623,9.27521622 L128.529463,9.27521622 L128.529463,4.86985612 L135.107823,4.86985612 L136.288663,0.941496041 L123.642863,0.941496041 L123.642863,21.9846165 L136.225063,21.9846165 Z M121.503783,0.973296041 L116.523902,0.973296041 L112.052822,11.6072163 C111.444382,13.0763763 110.967382,14.3526163 110.583662,15.5037763 L110.520062,15.5037763 C110.104542,14.2890163 109.625422,12.9152563 109.050902,11.4482163 L105.027142,0.973296041 L99.6614221,0.973296041 L108.378862,22.1457365 L112.116422,22.1457365 L121.503783,0.973296041 Z M97.5223421,21.9846165 L97.5223421,0.941496041 L92.667542,0.941496041 L92.667542,10.6807762 C92.667542,11.5118163 92.667542,13.0445763 92.733262,14.1300163 L92.667542,14.1300163 C92.061222,13.2353763 91.454902,12.4382563 90.7849819,11.5754163 L82.3219418,0.941496041 L77.4374617,0.941496041 L77.4374617,21.9846165 L82.2901418,21.9846165 L82.2901418,11.2870963 C82.2901418,10.3924562 82.2901418,8.98901621 82.1947418,8.28517619 L82.2583418,8.28517619 C82.9600618,9.21161621 83.5685018,10.0426562 84.2384218,10.9033762 L92.987662,21.9846165 L97.5223421,21.9846165 Z M68.7179015,21.9846165 L73.6045016,21.9846165 L73.6045016,0.941496041 L68.7179015,0.941496041 L68.7179015,21.9846165 Z M66.6445414,0.941496041 L48.9531411,0.941496041 L48.9531411,4.86985612 L55.1159812,4.86985612 L55.1159812,21.9846165 L60.0661813,21.9846165 L60.0661813,4.86985612 L65.6227014,4.86985612 L66.6445414,0.941496041 Z M47.579381,15.8853764 C47.579381,9.21161621 38.6075409,9.59533622 38.6075409,6.24149615 C38.6075409,5.21965613 39.6611809,4.54973612 41.1303409,4.54973612 C42.8539009,4.54973612 44.291261,5.12425613 46.239541,6.11429615 L46.334941,2.02693606 C45.024781,1.29341605 43.0765009,0.716776036 40.8420209,0.716776036 C36.0190208,0.716776036 33.4326207,3.6550961 33.4326207,6.88173617 C33.4326207,8.5098962 33.9435408,9.69073622 34.7427808,10.6171762 C37.2655808,13.5554963 42.4065809,13.9710163 42.4065809,16.4916964 C42.4065809,17.9290564 40.8102209,18.4399764 39.3728609,18.4399764 C37.5199808,18.4399764 35.9236208,17.7064564 34.5201808,16.7482164 L32.6673007,20.2292564 C34.2636608,21.2828965 36.4981408,22.3047365 39.6293809,22.3047365 C44.034741,22.3047365 47.579381,19.8773364 47.579381,15.8853764 Z M30.4964207,21.9846165 L30.4964207,18.0583764 L22.8008205,18.0583764 L22.8008205,13.2353763 L29.4109807,13.2353763 L29.4109807,9.27521622 L22.8008205,9.27521622 L22.8008205,4.86985612 L29.3791807,4.86985612 L30.5600207,0.941496041 L17.9142204,0.941496041 L17.9142204,21.9846165 L30.4964207,21.9846165 Z M10.3140203,15.5355763 C10.3140203,17.2273364 9.29218024,18.0244564 6.96018019,18.0244564 L4.95042015,18.0244564 L4.95042015,13.3307763 L7.08950019,13.3307763 C9.22858024,13.3307763 10.3140203,14.1300163 10.3140203,15.5355763 Z M8.97206023,7.19973617 C8.97206023,8.3487762 8.01594021,9.37061622 6.92838019,9.37061622 L4.95042015,9.37061622 L4.95042015,4.93345612 L6.29026017,4.93345612 C8.11134021,4.93345612 8.97206023,5.95529615 8.97206023,7.19973617 Z M15.2006204,15.5673763 C15.2006204,13.2671763 13.8904603,11.1916963 11.3358603,10.4899762 L11.3358603,10.4581762 C12.9322203,9.56353622 13.7314603,7.87177619 13.7314603,6.27329615 C13.7314603,3.6232961 11.5923803,0.941496041 7.28030019,0.941496041 L0.0638200433,0.941496041 L0.0638200433,21.9846165 L7.6640202,21.9846165 C12.7096203,21.9846165 15.2006204,18.6646964 15.2006204,15.5673763 Z" id="Fill-89"></path>
            </g>
        </g>
    </g>
</svg>