<?xml version="1.0" encoding="UTF-8"?>
<svg width="235px" height="124px" viewBox="0 0 235 124" version="1.1" xmlns="http://www.w3.org/2000/svg" xmlns:xlink="http://www.w3.org/1999/xlink">
    <!-- Generator: Sketch 52.2 (67145) - http://www.bohemiancoding.com/sketch -->
    <title>Group 59 Copy</title>
    <desc>Created with Sketch.</desc>
    <defs>
        <polygon id="path-1" points="0.4149 0.268 44.5529 0.268 44.5529 78.5346 0.4149 78.5346"></polygon>
        <polygon id="path-3" points="0 124 234.52 124 234.52 0.268 0 0.268"></polygon>
    </defs>
    <g id="Observatorio" stroke="none" stroke-width="1" fill="none" fill-rule="evenodd">
        <g id="Group-59-Copy" transform="translate(0.000000, -1.000000)">
            <polygon id="Fill-1" fill="#FFFFFF" points="80.092 78.147 91.922 78.147 91.922 2.121 80.092 2.121"></polygon>
            <polygon id="Fill-2" fill="#FFFFFF" points="197.4627 2.1214 197.4627 78.1474 234.5197 78.1474 234.5197 67.4894 209.3007 67.4894 209.3007 43.7324 232.4297 43.7324 232.4297 33.2764 209.3007 33.2764 209.3007 12.5724 233.6227 12.5724 233.6227 2.1214"></polygon>
            <polygon id="Fill-3" fill="#FFFFFF" points="177.804 36.6373 177.815 36.6423 177.775 36.6183"></polygon>
            <polygon id="Fill-4" fill="#FFFFFF" points="177.804 36.6373 177.815 36.6423 177.775 36.6183"></polygon>
            <g id="Group-58" transform="translate(0.000000, 0.732000)">
                <g id="Group-7" transform="translate(146.000000, 0.000000)">
                    <mask id="mask-2" fill="white">
                        <use xlink:href="#path-1"></use>
                    </mask>
                    <g id="Clip-6"></g>
                    <path d="M17.8409,42.7886 L19.6509,43.7756 C19.6799,43.7936 21.1229,44.5526 21.1229,44.5526 C27.9389,48.1336 32.1179,50.6426 32.1179,56.8186 C32.1179,66.8016 23.1489,67.8786 19.2909,67.8786 C13.0539,67.8786 7.1209,65.2996 4.8609,64.1916 L0.8119,62.2036 L0.8119,76.2796 L2.9579,76.8216 C4.8359,77.3006 11.3649,78.5346 18.8899,78.5346 C31.2949,78.5346 44.5529,72.6426 44.5529,56.1006 C44.5529,44.7876 38.7919,40.2716 31.8319,35.9236 L31.8039,35.9056 L23.2449,31.1376 C15.0009,26.8146 12.1479,25.0226 12.1479,19.2396 C12.1479,14.0666 16.2449,10.7196 22.5829,10.7196 C27.8999,10.7196 32.8469,12.7046 36.5669,14.4346 L40.5619,16.2916 L40.5619,2.4926 L38.3759,1.9726 C33.5659,0.8266 28.8859,0.2676 24.0749,0.2676 C9.7049,0.2676 0.4149,8.2356 0.4149,20.5636 C0.4149,33.3316 9.2759,38.1416 17.8409,42.7886" id="Fill-5" fill="#FFFFFF" mask="url(#mask-2)"></path>
                </g>
                <polygon id="Fill-8" fill="#FFFFFF" points="141.0762 66.7573 115.8572 66.7573 115.8572 43.0013 138.9862 43.0013 138.9862 32.5453 115.8572 32.5453 115.8572 11.8403 140.1862 11.8403 140.1862 1.3893 104.0272 1.3893 104.0272 77.4153 141.0762 77.4153"></polygon>
                <path d="M95.7403,111.9487 C94.2873,111.9487 93.3073,112.6737 92.9023,113.5007 L92.9023,112.0997 L91.5033,112.0997 L91.5033,120.9277 L92.9023,120.9277 L92.9023,115.5767 C92.9023,113.9897 94.0673,113.1627 95.3683,113.1627 C96.7873,113.1627 97.4453,113.8537 97.4453,115.4077 L97.4453,120.9277 L98.8443,120.9277 L98.8443,115.5087 C98.8443,112.9427 97.5633,111.9487 95.7403,111.9487" id="Fill-10" fill="#FFFFFF"></path>
                <mask id="mask-4" fill="white">
                    <use xlink:href="#path-3"></use>
                </mask>
                <g id="Clip-13"></g>
                <polygon id="Fill-12" fill="#FFFFFF" mask="url(#mask-4)" points="101.294 120.928 102.693 120.928 102.693 112.1 101.294 112.1"></polygon>
                <path d="M87.6202,116.1353 C87.6202,119.0893 86.4722,119.8663 84.5472,119.8663 C82.5372,119.8663 81.6422,118.8873 81.6422,116.3553 L81.6422,108.8603 L80.1762,108.8603 L80.1762,116.5243 C80.1762,119.4613 81.7442,121.0793 84.5132,121.0793 C87.6202,121.0793 89.0872,119.2753 89.0872,116.3373 L89.0872,108.8603 L87.6202,108.8603 L87.6202,116.1353 Z" id="Fill-14" fill="#FFFFFF" mask="url(#mask-4)"></path>
                <path d="M101.9688,108.4038 C101.4628,108.4038 101.0418,108.8258 101.0418,109.3308 C101.0418,109.8368 101.4628,110.2578 101.9688,110.2578 C102.4738,110.2578 102.8958,109.8368 102.8958,109.3308 C102.8958,108.8258 102.4738,108.4038 101.9688,108.4038" id="Fill-15" fill="#FFFFFF" mask="url(#mask-4)"></path>
                <polygon id="Fill-16" fill="#FFFFFF" mask="url(#mask-4)" points="108.3658 119.5122 105.7498 112.1002 104.2318 112.1002 107.4378 120.9282 109.2268 120.9282 112.4008 112.1002 110.9488 112.1002"></polygon>
                <polygon id="Fill-17" fill="#FFFFFF" mask="url(#mask-4)" points="201.9903 119.5122 199.3733 112.1002 197.8543 112.1002 201.0613 120.9282 202.8503 120.9282 206.0233 112.1002 204.5713 112.1002"></polygon>
                <polygon id="Fill-18" fill="#FFFFFF" mask="url(#mask-4)" points="186.3253 118.8364 180.4483 108.8594 178.5433 108.8594 178.5433 120.9284 179.9413 120.9284 179.9413 110.5784 186.0383 120.9284 187.7233 120.9284 187.7233 108.8594 186.3253 108.8594"></polygon>
                <path d="M195.2891,117.8394 C195.2891,119.2074 194.1571,119.9674 192.6711,119.9674 C191.4381,119.9674 190.9991,119.3934 190.9991,118.4814 C190.9991,117.1804 192.3001,116.7414 194.0731,116.7414 L195.2891,116.7414 L195.2891,117.8394 Z M193.4651,111.9484 C191.7591,111.9484 190.1561,112.6904 189.9711,114.6994 L191.3701,114.6994 C191.5051,113.6184 192.1821,113.1114 193.3971,113.1114 C194.7481,113.1114 195.2891,113.7034 195.2891,115.1054 L195.2891,115.7474 L194.0221,115.7474 C191.7591,115.7474 189.6001,116.4384 189.6001,118.4804 C189.6001,120.2874 190.8971,121.0794 192.5361,121.0794 C193.8361,121.0794 194.6311,120.6424 195.2891,119.8164 L195.2891,120.9284 L196.6871,120.9284 L196.6871,115.1054 C196.6871,112.6404 195.1541,111.9484 193.4651,111.9484 Z" id="Fill-19" fill="#FFFFFF" mask="url(#mask-4)"></path>
                <polygon id="Fill-20" fill="#FFFFFF" mask="url(#mask-4)" points="149.4219 118.4302 146.7209 112.1002 145.2199 112.1002 148.6799 120.0162 147.0079 123.9992 148.4259 123.9992 153.3029 112.1002 151.8679 112.1002"></polygon>
                <path d="M169.1065,110.6646 L169.1065,112.1006 L167.8395,112.1006 L167.8395,113.2806 L169.1065,113.2806 L169.1065,120.9286 L170.5045,120.9286 L170.5045,113.2806 L172.6665,113.2806 L172.6665,112.1006 L170.5045,112.1006 L170.5045,110.5136 C170.5045,109.6176 170.8775,108.9926 171.7885,108.9926 C172.1765,108.9926 172.5315,109.0776 172.7845,109.1786 L172.7845,107.9986 C172.4295,107.8806 172.1935,107.8296 171.7385,107.8296 C169.9825,107.8296 169.1065,108.8746 169.1065,110.6646" id="Fill-21" fill="#FFFFFF" mask="url(#mask-4)"></path>
                <path d="M165.5108,116.5903 C165.5108,118.5823 164.3968,119.9163 162.6228,119.9163 C160.8318,119.9163 159.7348,118.6003 159.7348,116.5903 L159.7348,116.4543 C159.7348,114.4283 160.8498,113.1113 162.6228,113.1113 C164.3788,113.1113 165.5108,114.4283 165.5108,116.4713 L165.5108,116.5903 Z M162.6228,111.9483 C160.1228,111.9483 158.2858,113.8043 158.2858,116.4543 L158.2858,116.5903 C158.2858,119.1743 160.0888,121.0793 162.6058,121.0793 C165.1218,121.0793 166.9598,119.2403 166.9598,116.5733 L166.9598,116.4393 C166.9598,113.7863 165.1218,111.9483 162.6228,111.9483 Z" id="Fill-22" fill="#FFFFFF" mask="url(#mask-4)"></path>
                <path d="M233.1202,117.8394 C233.1202,119.2074 231.9882,119.9674 230.5022,119.9674 C229.2682,119.9674 228.8302,119.3934 228.8302,118.4814 C228.8302,117.1804 230.1312,116.7414 231.9042,116.7414 L233.1202,116.7414 L233.1202,117.8394 Z M231.2962,111.9484 C229.5912,111.9484 227.9872,112.6904 227.8022,114.6994 L229.2022,114.6994 C229.3372,113.6184 230.0132,113.1114 231.2282,113.1114 C232.5802,113.1114 233.1202,113.7034 233.1202,115.1054 L233.1202,115.7474 L231.8532,115.7474 C229.5912,115.7474 227.4322,116.4384 227.4322,118.4804 C227.4322,120.2874 228.7292,121.0794 230.3672,121.0794 C231.6682,121.0794 232.4612,120.6424 233.1202,119.8164 L233.1202,120.9284 L234.5192,120.9284 L234.5192,115.1054 C234.5192,112.6404 232.9842,111.9484 231.2962,111.9484 Z" id="Fill-23" fill="#FFFFFF" mask="url(#mask-4)"></path>
                <path d="M223.6309,113.6851 L223.6309,112.1001 L222.2319,112.1001 L222.2319,120.9281 L223.6309,120.9281 L223.6309,116.0831 C223.6309,113.9051 224.7619,113.3471 226.5339,113.2631 L226.5339,111.9491 C224.9469,111.9991 224.1879,112.6901 223.6309,113.6851" id="Fill-24" fill="#FFFFFF" mask="url(#mask-4)"></path>
                <path d="M217.6212,113.6851 L217.6212,112.1001 L216.2222,112.1001 L216.2222,120.9281 L217.6212,120.9281 L217.6212,116.0831 C217.6212,113.9051 218.7522,113.3471 220.5242,113.2631 L220.5242,111.9491 C218.9382,111.9991 218.1782,112.6901 217.6212,113.6851" id="Fill-25" fill="#FFFFFF" mask="url(#mask-4)"></path>
                <path d="M212.4073,117.8394 C212.4073,119.2074 211.2743,119.9674 209.7893,119.9674 C208.5563,119.9674 208.1163,119.3934 208.1163,118.4814 C208.1163,117.1804 209.4173,116.7414 211.1903,116.7414 L212.4073,116.7414 L212.4073,117.8394 Z M210.5823,111.9484 C208.8773,111.9484 207.2743,112.6904 207.0893,114.6994 L208.4883,114.6994 C208.6233,113.6184 209.3003,113.1114 210.5153,113.1114 C211.8663,113.1114 212.4073,113.7034 212.4073,115.1054 L212.4073,115.7474 L211.1393,115.7474 C208.8773,115.7474 206.7183,116.4384 206.7183,118.4804 C206.7183,120.2874 208.0153,121.0794 209.6543,121.0794 C210.9543,121.0794 211.7483,120.6424 212.4073,119.8164 L212.4073,120.9284 L213.8053,120.9284 L213.8053,115.1054 C213.8053,112.6404 212.2713,111.9484 210.5823,111.9484 Z" id="Fill-26" fill="#FFFFFF" mask="url(#mask-4)"></path>
                <path d="M142.2628,118.5825 L142.2628,113.2805 L144.3228,113.2805 L144.3228,112.1005 L142.2628,112.1005 L142.2628,110.0925 L140.8648,110.0925 L140.8648,112.1005 L139.5978,112.1005 L139.5978,113.2805 L140.8648,113.2805 L140.8648,118.7175 C140.8648,120.1025 141.6398,121.0455 143.2418,121.0455 C143.8158,121.0455 144.1538,120.9615 144.4418,120.8605 L144.4418,119.6815 C144.1358,119.7985 143.7998,119.8665 143.3608,119.8665 C142.6518,119.8665 142.2628,119.4435 142.2628,118.5825" id="Fill-27" fill="#FFFFFF" mask="url(#mask-4)"></path>
                <polygon id="Fill-28" fill="#FFFFFF" mask="url(#mask-4)" points="136.627 120.928 138.025 120.928 138.025 112.1 136.627 112.1"></polygon>
                <path d="M124.3008,113.6851 L124.3008,112.1001 L122.9028,112.1001 L122.9028,120.9281 L124.3008,120.9281 L124.3008,116.0831 C124.3008,113.9051 125.4318,113.3471 127.2048,113.2631 L127.2048,111.9491 C125.6168,111.9991 124.8588,112.6901 124.3008,113.6851" id="Fill-29" fill="#FFFFFF" mask="url(#mask-4)"></path>
                <path d="M114.4937,115.6626 C114.7287,114.0916 115.6927,113.1116 117.1277,113.1116 C118.5797,113.1116 119.5267,113.8386 119.6607,115.6626 L114.4937,115.6626 Z M117.1277,111.9486 C114.6967,111.9486 112.9927,113.8046 112.9927,116.4716 L112.9927,116.6066 C112.9927,119.3246 114.7637,121.0796 117.2627,121.0796 C119.2557,121.0796 120.7227,120.1526 121.0267,118.3806 L119.6267,118.3806 C119.4417,119.4096 118.6477,119.9166 117.2807,119.9166 C115.4727,119.9166 114.5107,118.8016 114.4427,116.7916 L121.0937,116.7916 L121.0937,116.3366 C121.0937,113.1796 119.1707,111.9486 117.1277,111.9486 Z" id="Fill-30" fill="#FFFFFF" mask="url(#mask-4)"></path>
                <path d="M131.6964,115.7788 C130.0744,115.4928 129.6354,115.1718 129.6354,114.3788 C129.6354,113.6188 130.2954,113.1118 131.3074,113.1118 C132.4234,113.1118 132.9634,113.5338 133.1664,114.4968 L134.5144,114.4968 C134.2794,112.5898 132.9124,111.9488 131.3244,111.9488 C129.9394,111.9488 128.3384,112.7908 128.3384,114.4278 C128.3384,115.9658 129.1134,116.6078 131.4094,117.0288 C132.7774,117.2828 133.4694,117.5868 133.4694,118.5148 C133.4694,119.4618 132.8794,119.9168 131.5444,119.9168 C130.1264,119.9168 129.5684,119.2578 129.4674,118.2118 L128.1014,118.2118 C128.1864,120.0168 129.4504,121.0798 131.5614,121.0798 C133.7064,121.0798 134.8014,120.0018 134.8014,118.3968 C134.8014,116.5228 133.5204,116.1168 131.6964,115.7788" id="Fill-31" fill="#FFFFFF" mask="url(#mask-4)"></path>
                <path d="M137.3018,108.4038 C136.7948,108.4038 136.3728,108.8258 136.3728,109.3308 C136.3728,109.8368 136.7948,110.2578 137.3018,110.2578 C137.8068,110.2578 138.2288,109.8368 138.2288,109.3308 C138.2288,108.8258 137.8068,108.4038 137.3018,108.4038" id="Fill-32" fill="#FFFFFF" mask="url(#mask-4)"></path>
                <path d="M221.0714,95.4536 L221.0714,95.2806 C221.0714,92.6886 222.4964,91.0046 224.7634,91.0046 C227.0084,91.0046 228.4574,92.6886 228.4574,95.3016 L228.4574,95.4536 C228.4574,98.0016 227.0314,99.7066 224.7634,99.7066 C222.4744,99.7066 221.0714,98.0226 221.0714,95.4536 M230.3094,95.4316 L230.3094,95.2586 C230.3094,91.8686 227.9604,89.5166 224.7634,89.5166 C221.5674,89.5166 219.2174,91.8896 219.2174,95.2806 L219.2174,95.4536 C219.2174,98.7566 221.5244,101.1926 224.7424,101.1926 C227.9604,101.1926 230.3094,98.8436 230.3094,95.4316" id="Fill-33" fill="#FFFFFF" mask="url(#mask-4)"></path>
                <path d="M215.8497,95.4536 C215.8497,98.0016 214.4237,99.7066 212.1577,99.7066 C209.8687,99.7066 208.4637,98.0226 208.4637,95.4536 L208.4637,95.2806 C208.4637,92.6886 209.8887,91.0046 212.1577,91.0046 C214.4037,91.0046 215.8497,92.6886 215.8497,95.3016 L215.8497,95.4536 Z M217.7037,95.2586 C217.7037,91.8686 215.3537,89.5166 212.1577,89.5166 C208.9607,89.5166 206.6107,91.8896 206.6107,95.2806 L206.6107,95.4536 C206.6107,98.7566 208.9177,101.1926 212.1347,101.1926 C215.3537,101.1926 217.7037,98.8436 217.7037,95.4316 L217.7037,95.2586 Z" id="Fill-34" fill="#FFFFFF" mask="url(#mask-4)"></path>
                <path d="M108.9073,99.7066 C107.0933,99.7066 106.3813,98.8646 106.2523,97.5256 L104.5053,97.5256 C104.6133,99.8366 106.2303,101.1926 108.9293,101.1926 C111.6723,101.1926 113.0733,99.8136 113.0733,97.7636 C113.0733,95.3666 111.4343,94.8486 109.1023,94.4166 C107.0283,94.0496 106.4673,93.6396 106.4673,92.6236 C106.4673,91.6526 107.3083,91.0046 108.6053,91.0046 C110.0303,91.0046 110.7213,91.5446 110.9813,92.7756 L112.7063,92.7756 C112.4043,90.3366 110.6573,89.5176 108.6263,89.5176 C106.8553,89.5176 104.8073,90.5956 104.8073,92.6886 C104.8073,94.6536 105.7993,95.4746 108.7343,96.0156 C110.4843,96.3386 111.3703,96.7276 111.3703,97.9146 C111.3703,99.1246 110.6143,99.7066 108.9073,99.7066" id="Fill-35" fill="#FFFFFF" mask="url(#mask-4)"></path>
                <polygon id="Fill-36" fill="#FFFFFF" mask="url(#mask-4)" points="232.709 101 234.52 101 234.52 84.315 232.709 84.315"></polygon>
                <path d="M116.2691,84.9849 C115.6221,84.9849 115.0831,85.5229 115.0831,86.1709 C115.0831,86.8169 115.6221,87.3569 116.2691,87.3569 C116.9151,87.3569 117.4551,86.8169 117.4551,86.1709 C117.4551,85.5229 116.9151,84.9849 116.2691,84.9849" id="Fill-37" fill="#FFFFFF" mask="url(#mask-4)"></path>
                <path d="M133.9903,94.2671 C134.2923,92.2581 135.5223,91.0041 137.3593,91.0041 C139.2173,91.0041 140.4263,91.9331 140.5983,94.2671 L133.9903,94.2671 Z M142.4303,95.1281 C142.4303,91.0911 139.9713,89.5171 137.3593,89.5171 C134.2493,89.5171 132.0713,91.8901 132.0713,95.3011 L132.0713,95.4731 C132.0713,98.9511 134.3363,101.1931 137.5323,101.1931 C140.0803,101.1931 141.9563,100.0081 142.3443,97.7421 L140.5553,97.7421 C140.3173,99.0591 139.3023,99.7061 137.5533,99.7061 C135.2423,99.7061 134.0113,98.2811 133.9253,95.7101 L142.4303,95.7101 L142.4303,95.1281 Z" id="Fill-38" fill="#FFFFFF" mask="url(#mask-4)"></path>
                <polygon id="Fill-39" fill="#FFFFFF" mask="url(#mask-4)" points="115.407 101 117.197 101 117.197 89.713 115.407 89.713"></polygon>
                <path d="M88.7032,96.6616 C88.7032,98.5406 87.6672,99.5336 85.4212,99.5336 L82.0092,99.5336 L82.0092,93.7676 L85.1622,93.7676 C87.6452,93.7676 88.7032,94.6756 88.7032,96.5756 L88.7032,96.6616 Z M82.0092,87.0326 L84.7742,87.0326 C86.9322,87.0326 87.9482,87.7446 87.9482,89.4946 L87.9482,89.5816 C87.9482,91.4816 87.0842,92.3026 84.8172,92.3026 L82.0092,92.3026 L82.0092,87.0326 Z M87.4512,92.9056 C89.2202,92.3026 89.7802,91.0506 89.7802,89.6446 L89.7802,89.5586 C89.7802,86.5156 87.6892,85.5666 84.8172,85.5666 L80.1772,85.5666 L80.1772,100.9996 L85.4642,100.9996 C88.5522,100.9996 90.5362,99.5986 90.5362,96.6826 L90.5362,96.5976 C90.5362,94.5886 89.6952,93.4436 87.4512,92.9056 Z" id="Fill-40" fill="#FFFFFF" mask="url(#mask-4)"></path>
                <path d="M180.4444,96.6411 C180.4444,93.7261 178.6334,92.6901 175.2014,92.1501 C172.0484,91.6741 171.4864,90.8971 171.4864,89.3851 C171.4864,87.9391 172.5874,86.8811 174.7034,86.8811 C176.8404,86.8811 177.9644,87.6801 178.3324,89.6231 L180.0134,89.6231 C179.7124,86.8811 177.7914,85.3731 174.7034,85.3731 C171.7894,85.3731 169.7404,87.1831 169.7404,89.5581 C169.7404,92.3011 171.6594,93.3161 174.8984,93.8131 C177.8354,94.2871 178.6334,95.0221 178.6334,96.7701 C178.6334,98.5201 177.1004,99.6851 175.1144,99.6851 C172.0054,99.6851 171.2704,98.1311 171.0334,96.2951 L169.2214,96.2951 C169.5034,98.9291 170.9904,101.1931 175.1144,101.1931 C178.1794,101.1931 180.4444,99.2321 180.4444,96.6411" id="Fill-41" fill="#FFFFFF" mask="url(#mask-4)"></path>
                <path d="M162.419,97.7632 C162.419,95.3672 160.781,94.8482 158.448,94.4162 C156.375,94.0492 155.814,93.6392 155.814,92.6232 C155.814,91.6532 156.656,91.0042 157.952,91.0042 C159.378,91.0042 160.069,91.5442 160.328,92.7762 L162.054,92.7762 C161.752,90.3362 160.004,89.5172 157.974,89.5172 C156.202,89.5172 154.154,90.5952 154.154,92.6892 C154.154,94.6542 155.146,95.4742 158.082,96.0152 C159.831,96.3382 160.717,96.7272 160.717,97.9142 C160.717,99.1242 159.961,99.7062 158.255,99.7062 C156.44,99.7062 155.728,98.8652 155.598,97.5262 L153.853,97.5262 C153.961,99.8362 155.577,101.1932 158.275,101.1932 C161.019,101.1932 162.419,99.8142 162.419,97.7632" id="Fill-42" fill="#FFFFFF" mask="url(#mask-4)"></path>
                <path d="M129.8243,100.9995 L129.8243,94.0695 C129.8243,90.7895 128.1853,89.5175 125.8533,89.5175 C123.9963,89.5175 122.7433,90.4445 122.2243,91.5005 L122.2243,89.7125 L120.4363,89.7125 L120.4363,100.9995 L122.2243,100.9995 L122.2243,94.1565 C122.2243,92.1275 123.7153,91.0685 125.3783,91.0685 C127.1923,91.0685 128.0343,91.9545 128.0343,93.9405 L128.0343,100.9995 L129.8243,100.9995 Z" id="Fill-43" fill="#FFFFFF" mask="url(#mask-4)"></path>
                <path d="M152.4903,97.7632 C152.4903,95.3672 150.8513,94.8482 148.5193,94.4162 C146.4453,94.0492 145.8843,93.6392 145.8843,92.6232 C145.8843,91.6532 146.7253,91.0042 148.0213,91.0042 C149.4473,91.0042 150.1383,91.5442 150.3973,92.7762 L152.1233,92.7762 C151.8213,90.3362 150.0743,89.5172 148.0443,89.5172 C146.2723,89.5172 144.2243,90.5952 144.2243,92.6892 C144.2243,94.6542 145.2163,95.4742 148.1513,96.0152 C149.9013,96.3382 150.7873,96.7272 150.7873,97.9142 C150.7873,99.1242 150.0313,99.7062 148.3243,99.7062 C146.5103,99.7062 145.7983,98.8652 145.6693,97.5262 L143.9233,97.5262 C144.0303,99.8362 145.6463,101.1932 148.3463,101.1932 C151.0893,101.1932 152.4903,99.8142 152.4903,97.7632" id="Fill-44" fill="#FFFFFF" mask="url(#mask-4)"></path>
                <path d="M202.5733,93.9409 L202.5733,100.9999 L204.3633,100.9999 L204.3633,94.0699 C204.3633,90.7899 202.7243,89.5169 200.3923,89.5169 C198.5353,89.5169 197.2823,90.4449 196.7643,91.5009 L196.7643,84.3149 L194.9753,84.3149 L194.9753,100.9999 L196.7643,100.9999 L196.7643,94.1569 C196.7643,92.1279 198.2543,91.0689 199.9173,91.0689 C201.7313,91.0689 202.5733,91.9549 202.5733,93.9409" id="Fill-45" fill="#FFFFFF" mask="url(#mask-4)"></path>
                <path d="M102.2364,100.9995 L102.2364,89.7125 L100.4464,89.7125 L100.4464,96.5535 C100.4464,98.5845 98.9354,99.6425 97.3374,99.6425 C95.5664,99.6425 94.7244,98.7575 94.7244,96.7705 L94.7244,89.7125 L92.9344,89.7125 L92.9344,96.8565 C92.9344,99.9655 94.6164,101.1925 96.8614,101.1925 C98.6764,101.1925 99.9284,100.2675 100.4464,99.2105 L100.4464,100.9995 L102.2364,100.9995 Z" id="Fill-46" fill="#FFFFFF" mask="url(#mask-4)"></path>
                <path d="M192.7061,96.9429 L191.0441,96.9429 C190.8501,98.7789 189.4031,99.7069 187.8061,99.7069 C185.6261,99.7069 184.1141,98.2389 184.1141,95.4739 L184.1141,95.3009 C184.1141,92.6459 185.6901,91.0049 187.7401,91.0049 C189.2951,91.0049 190.5901,91.6729 190.8711,93.4659 L192.6421,93.4659 C192.2961,90.5949 190.0941,89.5169 187.7401,89.5169 C184.7191,89.5169 182.2611,91.8459 182.2611,95.3009 L182.2611,95.4739 C182.2611,98.9719 184.6331,101.1929 187.7841,101.1929 C190.5041,101.1929 192.4691,99.3819 192.7061,96.9429" id="Fill-47" fill="#FFFFFF" mask="url(#mask-4)"></path>
                <path d="M45.0943,76.9253 C47.0433,76.2383 48.9073,75.3883 50.6793,74.3713 L50.6793,38.0843 L45.0943,38.0843 L45.0943,76.9253 Z" id="Fill-48" fill="#FFFFFF" mask="url(#mask-4)"></path>
                <path d="M54.0704,72.1675 C56.0394,70.7005 57.8334,69.0345 59.4434,67.1835 L59.4434,38.0845 L54.0704,38.0845 L54.0704,72.1675 Z" id="Fill-49" fill="#FFFFFF" mask="url(#mask-4)"></path>
                <path d="M35.4937,78.7905 C37.6177,78.6845 39.6917,78.3815 41.7037,77.9095 L41.7037,38.0845 L35.4937,38.0845 L35.4937,78.7905 Z" id="Fill-50" fill="#FFFFFF" mask="url(#mask-4)"></path>
                <path d="M62.8345,62.5767 C65.9715,57.4347 67.7865,51.3917 67.7865,44.9347 L67.7865,38.7867 L67.7865,38.0847 L62.8345,38.0847 L62.8345,62.5767 Z" id="Fill-51" fill="#FFFFFF" mask="url(#mask-4)"></path>
                <polygon id="Fill-52" fill="#FFFFFF" mask="url(#mask-4)" points="26.567 35.342 32.096 35.342 32.096 0.89 26.567 0.89"></polygon>
                <polygon id="Fill-53" fill="#FFFFFF" mask="url(#mask-4)" points="17.803 35.342 23.184 35.342 23.184 0.89 17.803 0.89"></polygon>
                <polygon id="Fill-54" fill="#FFFFFF" mask="url(#mask-4)" points="8.828 35.342 14.413 35.342 14.413 0.89 8.828 0.89"></polygon>
                <path d="M5.4297,0.8897 L4.2347,0.8897 C1.8997,0.8897 -0.0003,2.7877 -0.0003,5.1347 L-0.0003,11.0357 L-0.0003,35.3417 L5.4297,35.3417 L5.4297,0.8897 Z" id="Fill-55" fill="#FFFFFF" mask="url(#mask-4)"></path>
                <path d="M16.9166,53.4248 C13.9196,53.4248 11.4866,50.9978 11.4866,48.0088 C11.4866,45.0158 13.9196,42.5858 16.9166,42.5858 C19.9136,42.5858 22.3396,45.0158 22.3396,48.0088 C22.3396,50.9978 19.9136,53.4248 16.9166,53.4248 Z M16.9166,67.9078 C13.9196,67.9078 11.4866,65.4778 11.4866,62.4818 C11.4866,59.4888 13.9196,57.0618 16.9166,57.0618 C19.9136,57.0618 22.3396,59.4888 22.3396,62.4818 C22.3396,65.4778 19.9136,67.9078 16.9166,67.9078 Z M-0.0004,38.0848 L-0.0004,38.7868 L-0.0004,44.9348 C-0.0004,63.0478 14.2156,77.8468 32.0956,78.7798 L32.0956,38.0848 L-0.0004,38.0848 Z" id="Fill-56" fill="#FFFFFF" mask="url(#mask-4)"></path>
                <path d="M50.7921,16.1314 C47.7951,16.1314 45.3691,13.7044 45.3691,10.7114 C45.3691,7.7124 47.7951,5.2854 50.7921,5.2854 C53.7891,5.2854 56.2081,7.7124 56.2081,10.7114 C56.2081,13.7044 53.7891,16.1314 50.7921,16.1314 M50.7921,30.4064 C47.7951,30.4064 45.3691,27.9794 45.3691,24.9874 C45.3691,21.9904 47.7951,19.5644 50.7921,19.5644 C53.7891,19.5644 56.2081,21.9904 56.2081,24.9874 C56.2081,27.9794 53.7891,30.4064 50.7921,30.4064 M63.5511,0.8894 L35.4941,0.8894 L35.4941,35.3414 L67.7871,35.3414 L67.7871,11.0354 L67.7871,5.1344 C67.7871,2.7884 65.8871,0.8894 63.5511,0.8894" id="Fill-57" fill="#FFFFFF" mask="url(#mask-4)"></path>
            </g>
        </g>
    </g>
</svg>