<?xml version="1.0" encoding="UTF-8"?>
<svg width="15px" height="12px" viewBox="0 0 15 12" version="1.1" xmlns="http://www.w3.org/2000/svg" xmlns:xlink="http://www.w3.org/1999/xlink">
    <!-- Generator: Sketch 51.2 (57519) - http://www.bohemiancoding.com/sketch -->
    <title>Combined Shape</title>
    <desc>Created with Sketch.</desc>
    <defs></defs>
    <g id="Observatorio" stroke="none" stroke-width="1" fill="none" fill-rule="evenodd">
        <g id="1400_home" transform="translate(-1351.000000, -53.000000)" fill="#FFFFFF" fill-rule="nonzero">
            <g id="Group-26">
                <g id="topNav">
                    <g id="Group-9" transform="translate(1177.000000, 0.000000)">
                        <path d="M188.494359,58.1029285 C188.761786,58.2486421 188.954678,58.535502 188.993014,58.8752631 C188.99789,58.9147165 189.000213,58.9544205 188.999985,58.9941128 C188.999995,58.9960739 189,58.9980363 189,59 C189,59.413408 188.772519,59.7682242 188.448065,59.920527 L183.600084,64.7277756 C183.234229,65.090557 182.640847,65.0907684 182.274728,64.7282478 C181.90861,64.3657273 181.908397,63.7777539 182.274252,63.4149725 L185.71816,60 L174.906801,60 C174.405988,60 174,59.5522847 174,59 C174,58.4477153 174.405988,58 174.906801,58 L185.740799,58 L182.296891,54.5850275 C181.931036,54.2222461 181.93125,53.6342727 182.297368,53.2717522 C182.663486,52.9092316 183.256868,52.909443 183.622724,53.2722244 L188.494359,58.1029285 Z" id="Combined-Shape"></path>
                    </g>
                </g>
            </g>
        </g>
    </g>
</svg>