<?xml version="1.0" encoding="UTF-8"?>
<svg width="18px" height="18px" viewBox="0 0 18 18" version="1.1" xmlns="http://www.w3.org/2000/svg" xmlns:xlink="http://www.w3.org/1999/xlink">
    <!-- Generator: Sketch 50.2 (55047) - http://www.bohemiancoding.com/sketch -->
    <title>Artboard</title>
    <desc>Created with Sketch.</desc>
    <defs></defs>
    <g id="Artboard" stroke="none" stroke-width="1" fill="none" fill-rule="evenodd">
        <g id="Group" fill="#000000" fill-rule="nonzero">
            <path d="M24.564375,11.064375 C24.564375,11.215125 24.5356875,11.385 24.47775,11.5723125 C24.4198125,11.759625 24.31575,11.941875 24.1644375,12.1168125 C24.0136875,12.2923125 23.783625,12.4430625 23.4748125,12.569625 C23.166,12.6961875 22.7818125,12.7591875 22.32225,12.7591875 C21.915,12.7591875 21.59325,12.7164375 21.3564375,12.630375 C21.119625,12.5443125 20.917125,12.427875 20.7489375,12.2805 C20.5734375,12.126375 20.43225,11.9514375 20.325375,11.7568125 C20.2185,11.5621875 20.1650625,11.3855625 20.1650625,11.2275 C20.1650625,11.13975 20.199375,11.0671875 20.2674375,11.00925 C20.3355,10.9513125 20.4103125,10.922625 20.4913125,10.922625 C20.5790625,10.922625 20.64375,10.95075 20.6859375,11.007 C20.728125,11.06325 20.7736875,11.154375 20.822625,11.280375 C21.085875,11.90475 21.6,12.2169375 22.365,12.2169375 C22.8560625,12.2169375 23.232375,12.1123125 23.4939375,11.9041875 C23.7555,11.6960625 23.886,11.446875 23.886,11.1594375 C23.886,10.8579375 23.776875,10.639125 23.55975,10.504125 C23.342625,10.369125 23.0844375,10.261125 22.7863125,10.180125 C22.5675,10.119375 22.348125,10.05975 22.1281875,10.00125 C21.9313125,9.9489375 21.7344375,9.8949375 21.5386875,9.838125 C21.3705,9.7891875 21.2265,9.7374375 21.10725,9.682875 C20.988,9.6283125 20.8828125,9.568125 20.7916875,9.5011875 C20.6409375,9.3853125 20.5171875,9.24075 20.4204375,9.0669375 C20.3236875,8.893125 20.275875,8.6979375 20.275875,8.48025 C20.275875,8.150625 20.4159375,7.8075 20.696625,7.4514375 C20.9773125,7.095375 21.48975,6.9170625 22.233375,6.9170625 C22.788,6.9170625 23.21775,7.0126875 23.522625,7.2039375 C23.8275,7.3951875 24.028875,7.596 24.1250625,7.806375 C24.22125,8.01675 24.269625,8.1765 24.269625,8.2850625 C24.269625,8.3413125 24.2488125,8.4015 24.206625,8.46675 C24.1644375,8.532 24.0856875,8.5640625 23.9698125,8.5640625 C23.896125,8.5640625 23.837625,8.54325 23.79375,8.5010625 C23.749875,8.458875 23.7054375,8.36775 23.6593125,8.2276875 C23.5400625,7.884 23.259375,7.6505625 22.81725,7.5279375 C22.6243125,7.479 22.4420625,7.45425 22.2699375,7.45425 C21.8874375,7.45425 21.567375,7.5324375 21.3091875,7.68825 C21.051,7.8440625 20.9221875,8.0645625 20.9221875,8.348625 C20.9221875,8.559 20.9896875,8.73 21.1246875,8.861625 C21.2596875,8.99325 21.4396875,9.0984375 21.664125,9.1771875 C21.8885625,9.2559375 22.1833125,9.3358125 22.548375,9.4168125 C23.166,9.550125 23.6565,9.72675 24.0193125,9.946125 C24.382125,10.1655 24.5638125,10.537875 24.5638125,11.064375 L24.564375,11.064375 Z M26.5696875,12.2169375 C26.5696875,12.385125 26.55225,12.517875 26.5168125,12.614625 C26.481375,12.711375 26.3908125,12.7591875 26.2434375,12.7591875 C26.0994375,12.7591875 26.0083125,12.7119375 25.9695,12.616875 C25.9306875,12.5218125 25.9115625,12.3890625 25.9115625,12.2169375 L25.9115625,5.3330625 C25.9115625,5.1575625 25.929,5.0214375 25.9644375,4.92525 C25.999875,4.8290625 26.08875,4.7806875 26.23275,4.7806875 C26.3835,4.7806875 26.4774375,4.8290625 26.5145625,4.92525 C26.5516875,5.0214375 26.5696875,5.1575625 26.5696875,5.3330625 L26.5696875,12.2169375 Z M29.025,5.4174375 C29.025,5.5299375 28.9845,5.6278125 28.9040625,5.7121875 C28.823625,5.7965625 28.7235,5.83875 28.60425,5.83875 C28.488375,5.83875 28.389375,5.796 28.3066875,5.7099375 C28.224,5.623875 28.1829375,5.5265625 28.1829375,5.418 C28.1829375,5.29875 28.225125,5.198625 28.3089375,5.1181875 C28.39275,5.03775 28.4911875,4.99725 28.6036875,4.99725 C28.7195625,4.99725 28.8185625,5.036625 28.90125,5.115375 C28.9839375,5.194125 29.025,5.295375 29.025,5.418 L29.025,5.4174375 Z M28.9305,12.2169375 C28.9305,12.385125 28.9125,12.517875 28.877625,12.614625 C28.84275,12.711375 28.751625,12.7591875 28.60425,12.7591875 C28.46025,12.7591875 28.369125,12.7119375 28.330875,12.616875 C28.292625,12.5218125 28.2729375,12.3890625 28.2729375,12.2169375 L28.2729375,7.464375 C28.2729375,7.288875 28.2920625,7.153875 28.330875,7.059375 C28.3696875,6.964875 28.4608125,6.9170625 28.60425,6.9170625 C28.751625,6.9170625 28.84275,6.966 28.877625,7.0644375 C28.9125,7.162875 28.9305,7.2961875 28.9305,7.464375 L28.9305,12.2169375 Z M35.537625,12.2169375 C35.537625,12.385125 35.5201875,12.517875 35.4853125,12.614625 C35.4504375,12.711375 35.3593125,12.7591875 35.2119375,12.7591875 C35.071875,12.7591875 34.9813125,12.709125 34.9408125,12.609 C34.9003125,12.508875 34.880625,12.378375 34.880625,12.2169375 L34.880625,11.7748125 C34.7158125,11.9536875 34.5549375,12.1089375 34.399125,12.2405625 C34.2433125,12.3721875 34.0295625,12.4914375 33.7595625,12.5983125 C33.4895625,12.7051875 33.1644375,12.758625 32.785875,12.758625 C32.2036875,12.758625 31.7255625,12.6095625 31.3515,12.3114375 C30.9774375,12.0133125 30.7085625,11.635875 30.54375,11.1796875 C30.3789375,10.7235 30.29625,10.2605625 30.29625,9.7903125 C30.29625,9.327375 30.3766875,8.877375 30.5386875,8.4403125 C30.7006875,8.00325 30.96675,7.6404375 31.3385625,7.35075 C31.710375,7.0610625 32.196375,6.9165 32.7965625,6.9165 C33.3680625,6.9165 33.8079375,7.0183125 34.1150625,7.2219375 C34.4221875,7.4255625 34.677,7.6674375 34.880625,7.948125 L34.880625,5.31675 C34.880625,5.1553125 34.900875,5.025375 34.9408125,4.9275 C34.98075,4.829625 35.0713125,4.780125 35.2119375,4.780125 C35.3593125,4.780125 35.4504375,4.827375 35.4853125,4.9224375 C35.5201875,5.0175 35.537625,5.1485625 35.537625,5.3173125 L35.537625,12.2169375 Z M34.8800625,9.8116875 C34.8800625,9.2435625 34.774875,8.78175 34.5645,8.427375 C34.354125,8.073 34.0925625,7.822125 33.780375,7.67475 C33.4681875,7.527375 33.159375,7.4536875 32.8539375,7.4536875 C32.506875,7.4536875 32.191875,7.5448125 31.9095,7.7270625 C31.627125,7.9093125 31.4026875,8.179875 31.235625,8.537625 C31.069125,8.895375 30.985875,9.325125 30.985875,9.826875 C30.985875,10.3426875 31.0753125,10.782 31.2541875,11.145375 C31.4330625,11.50875 31.6693125,11.777625 31.9618125,11.953125 C32.254875,12.128625 32.5659375,12.216375 32.896125,12.216375 C33.426,12.216375 33.8715,12.0515625 34.2331875,11.7219375 C34.42275,11.5464375 34.578,11.3158125 34.6989375,11.0300625 C34.819875,10.7443125 34.880625,10.337625 34.880625,9.8116875 L34.8800625,9.8116875 Z M41.8618125,9.448875 C41.8618125,9.655875 41.8134375,9.7846875 41.71725,9.835875 C41.6210625,9.8870625 41.46525,9.912375 41.2515,9.912375 L37.5935625,9.912375 C37.6003125,10.2493125 37.6425,10.5564375 37.720125,10.8331875 C37.79775,11.1099375 37.915875,11.3540625 38.075625,11.565 C38.232,11.773125 38.4373125,11.9390625 38.673,12.0493125 C38.9115,12.1618125 39.178125,12.2175 39.472875,12.2175 C39.7535625,12.2175 40.0494375,12.141 40.3599375,11.9885625 C40.6704375,11.836125 40.9235625,11.5104375 41.1204375,11.0120625 C41.1800625,10.854 41.2835625,10.77525 41.4309375,10.77525 C41.5254375,10.77525 41.603625,10.8061875 41.6655,10.8675 C41.727375,10.9288125 41.75775,10.998 41.75775,11.075625 C41.75775,11.19825 41.684625,11.394 41.5389375,11.662875 C41.39325,11.93175 41.148,12.1815 40.8020625,12.4126875 C40.456125,12.6444375 40.006125,12.75975 39.4520625,12.75975 C38.6206875,12.75975 37.987875,12.488625 37.55475,11.9469375 C37.121625,11.40525 36.9050625,10.702125 36.9050625,9.83925 C36.9050625,9.253125 37.0040625,8.739 37.2020625,8.2974375 C37.4000625,7.855875 37.68975,7.515 38.0705625,7.2765 C38.451375,7.038 38.9115,6.91875 39.4520625,6.91875 C40.1574375,6.91875 40.689,7.101 41.04675,7.4660625 C41.4045,7.831125 41.6300625,8.2029375 41.722875,8.5815 C41.8156875,8.960625 41.862375,9.24975 41.862375,9.45 L41.8618125,9.448875 Z M41.1721875,9.3751875 C41.15475,9.1895625 41.1373125,9.03825 41.119875,8.922375 C41.1024375,8.8065 41.06475,8.6715 41.0068125,8.517375 C40.948875,8.36325 40.8639375,8.21025 40.7514375,8.0595 C40.6215,7.884 40.4415,7.7394375 40.212,7.62525 C39.9825,7.5110625 39.7198125,7.45425 39.4250625,7.45425 C38.85975,7.45425 38.410875,7.67025 38.077875,8.1016875 C37.9164375,8.316 37.80675,8.5145625 37.7488125,8.6990625 C37.690875,8.8835625 37.6425,9.1085625 37.60425,9.3751875 L41.17275,9.3751875 L41.1721875,9.3751875 Z M44.1905625,8.4076875 C44.1905625,8.593875 44.28675,8.7395625 44.48025,8.8453125 C44.67375,8.9510625 45.104625,9.0860625 45.775125,9.250875 C47.07675,9.567 47.7275625,10.1098125 47.7275625,10.87875 C47.7275625,11.48625 47.5081875,11.9514375 47.07,12.274875 C46.6318125,12.5983125 46.017,12.7591875 45.2278125,12.7591875 C44.4279375,12.7591875 43.8255,12.594375 43.4199375,12.26475 C43.014375,11.935125 42.8124375,11.5858125 42.8124375,11.217375 C42.8124375,11.0593125 42.8686875,10.9243125 42.980625,10.812375 C43.0925625,10.7004375 43.2315,10.6441875 43.3963125,10.6441875 C43.62075,10.6441875 43.8170625,10.7848125 43.9858125,11.0655 C44.175375,11.3743125 44.3840625,11.5785 44.6124375,11.678625 C44.8408125,11.77875 45.084375,11.8288125 45.34425,11.8288125 C45.6316875,11.8288125 45.86625,11.7646875 46.0468125,11.635875 C46.227375,11.5070625 46.3179375,11.3445 46.3179375,11.147625 C46.3179375,10.9681875 46.240875,10.812375 46.0873125,10.6801875 C45.93375,10.548 45.516375,10.4045625 44.834625,10.24875 C44.152875,10.0935 43.6561875,9.874125 43.344,9.59175 C43.0318125,9.309375 42.8754375,8.9724375 42.8754375,8.5831875 C42.8754375,8.1444375 43.0655625,7.7563125 43.446375,7.4188125 C43.8271875,7.0813125 44.398125,6.913125 45.1591875,6.913125 C45.85725,6.913125 46.4135625,7.0554375 46.8275625,7.3395 C47.2415625,7.6235625 47.4485625,7.9183125 47.4485625,8.22375 C47.4485625,8.3851875 47.3956875,8.5213125 47.2905,8.6315625 C47.1853125,8.7418125 47.039625,8.7975 46.8534375,8.7975 C46.576125,8.7975 46.326375,8.63775 46.103625,8.3188125 C45.880875,7.999875 45.5445,7.8395625 45.095625,7.8395625 C44.85375,7.8395625 44.64225,7.8890625 44.4616875,7.9869375 C44.281125,8.0848125 44.1905625,8.226 44.1905625,8.4088125 L44.1905625,8.4076875 Z M54.032625,9.1299375 L54.032625,11.7534375 C54.032625,12.4245 53.7885,12.75975 53.3008125,12.75975 C53.07975,12.75975 52.907625,12.688875 52.785,12.5465625 C52.662375,12.40425 52.6005,12.139875 52.6005,11.7534375 L52.6005,9.4561875 C52.6005,8.9116875 52.513875,8.53875 52.340625,8.33625 C52.167375,8.13375 51.926625,8.0330625 51.618375,8.0330625 C51.3455625,8.0330625 51.1081875,8.1084375 50.9068125,8.25975 C50.7054375,8.4110625 50.563125,8.59725 50.47875,8.8183125 C50.394375,9.039375 50.35275,9.4275 50.35275,9.9826875 L50.35275,11.6476875 C50.35275,12.097125 50.2880625,12.39525 50.1598125,12.540375 C50.0315625,12.6855 49.8526875,12.7591875 49.62375,12.7591875 C49.4015625,12.7591875 49.22775,12.6883125 49.100625,12.546 C48.9735,12.4036875 48.9105,12.11175 48.9105,11.669625 L48.9105,5.9641875 C48.9105,5.6165625 48.927375,5.3758125 48.9605625,5.24025 C48.99375,5.1046875 49.0708125,4.9944375 49.190625,4.9089375 C49.3104375,4.822875 49.4510625,4.780125 49.6130625,4.780125 C49.795875,4.780125 49.9483125,4.8290625 50.0698125,4.9269375 C50.1913125,5.0248125 50.2689375,5.1519375 50.302125,5.30775 C50.3353125,5.4635625 50.3521875,5.72175 50.3521875,6.082875 L50.3521875,7.7799375 C50.832,7.201125 51.4153125,6.9114375 52.1026875,6.9114375 C52.680375,6.9114375 53.1466875,7.08975 53.5005,7.446375 C53.8543125,7.803 54.0315,8.364375 54.0315,9.129375 L54.032625,9.1299375 Z M60.006375,12.7591875 C59.715,12.7591875 59.407875,12.4891875 59.0855625,11.948625 C58.4015625,12.488625 57.7310625,12.7591875 57.0751875,12.7591875 C56.4541875,12.7591875 55.9771875,12.601125 55.643625,12.285 C55.3100625,11.968875 55.144125,11.5824375 55.144125,11.1256875 C55.144125,10.735875 55.2571875,10.4203125 55.4833125,10.1795625 C55.7094375,9.9388125 55.9558125,9.7711875 56.223,9.676125 C56.489625,9.5810625 56.923875,9.471375 57.52575,9.3465 C58.127625,9.221625 58.6125,9.106875 58.9809375,9.001125 C58.9775625,8.5663125 58.8915,8.272125 58.7233125,8.1196875 C58.555125,7.96725 58.298625,7.89075 57.9549375,7.89075 C57.3024375,7.89075 56.8760625,8.073 56.6758125,8.4380625 C56.5633125,8.6450625 56.46375,8.7924375 56.376,8.8801875 C56.28825,8.9679375 56.1616875,9.0118125 55.996875,9.0118125 C55.846125,9.0118125 55.7094375,8.96175 55.58625,8.861625 C55.4630625,8.7615 55.40175,8.6326875 55.40175,8.474625 C55.40175,8.1028125 55.6036875,7.749 56.007,7.4143125 C56.4103125,7.079625 57.045375,6.9114375 57.9121875,6.9114375 C58.789125,6.9114375 59.4315,7.0633125 59.8381875,7.3670625 C60.244875,7.6708125 60.4366875,8.2845 60.4119375,9.208125 L60.3804375,10.557 C60.366375,10.9749375 60.4096875,11.3158125 60.50925,11.5790625 C60.6088125,11.8423125 60.6594375,12.04425 60.6594375,12.184875 C60.6594375,12.335625 60.5925,12.4695 60.4591875,12.585375 C60.325875,12.70125 60.1745625,12.7591875 60.006375,12.7591875 Z M58.9905,9.8645625 C58.7761875,9.9489375 58.4229375,10.040625 57.929625,10.1390625 C57.4363125,10.2375 57.0875625,10.35 56.88225,10.4765625 C56.6769375,10.603125 56.5745625,10.787625 56.5745625,11.030625 C56.5745625,11.2381875 56.656125,11.421 56.81925,11.579625 C56.982375,11.73825 57.213,11.817 57.511125,11.817 C57.8266875,11.817 58.120875,11.7298125 58.3925625,11.556 C58.66425,11.3821875 58.831875,11.1751875 58.8954375,10.936125 C58.959,10.6965 58.9905,10.339875 58.9905,9.8645625 Z M61.8451875,11.5689375 L61.8451875,7.88175 C61.8451875,7.2354375 62.083125,6.9125625 62.5584375,6.9125625 C63.0129375,6.9125625 63.24525,7.2106875 63.2559375,7.8075 C63.5540625,7.21125 63.966375,6.9125625 64.492875,6.9125625 C64.7701875,6.9125625 65.0565,6.9856875 65.3529375,7.1308125 C65.649375,7.2759375 65.797875,7.475625 65.797875,7.7281875 C65.797875,7.9036875 65.73825,8.04825 65.619,8.1624375 C65.49975,8.276625 65.3720625,8.3334375 65.2348125,8.3334375 C65.15775,8.3334375 65.01825,8.3025 64.8163125,8.2411875 C64.614375,8.179875 64.445625,8.1489375 64.308375,8.1489375 C63.9646875,8.1489375 63.7081875,8.32275 63.54,8.670375 C63.3718125,9.018 63.2874375,9.6890625 63.2874375,10.683 L63.2874375,11.5155 C63.2874375,11.8805625 63.27225,12.1275 63.2424375,12.25575 C63.212625,12.384 63.1344375,12.499875 63.0073125,12.603375 C62.88075,12.706875 62.7345,12.758625 62.569125,12.758625 C62.4105,12.758625 62.2681875,12.7125 62.1410625,12.619125 C62.0139375,12.52575 61.9335,12.4155 61.8980625,12.28725 C61.862625,12.159 61.8451875,11.919375 61.8451875,11.568375 L61.8451875,11.5689375 Z M70.3288125,10.1908125 L67.507875,10.1908125 C67.5219375,10.7240625 67.6681875,11.1268125 67.9471875,11.3985 C68.2261875,11.6701875 68.5603125,11.8063125 68.9495625,11.8063125 C69.4305,11.8063125 69.88275,11.5959375 70.3074375,11.174625 C70.4795625,10.999125 70.6066875,10.8905625 70.6888125,10.848375 C70.7709375,10.8061875 70.8631875,10.785375 70.965,10.785375 C71.0949375,10.785375 71.2063125,10.825875 71.299125,10.9063125 C71.3919375,10.98675 71.438625,11.086875 71.438625,11.206125 C71.438625,11.529 71.2175625,11.86875 70.7754375,12.2248125 C70.3333125,12.580875 69.7348125,12.7591875 68.9805,12.7591875 C68.0191875,12.7591875 67.2901875,12.4880625 66.7935,11.94525 C66.2968125,11.4024375 66.04875,10.6993125 66.04875,9.835875 C66.04875,8.965125 66.2968125,8.25975 66.7935,7.720875 C67.2901875,7.182 67.980375,6.912 68.864625,6.912 C69.7100625,6.912 70.3625625,7.1668125 70.8226875,7.6764375 C71.2828125,8.1860625 71.5123125,8.7395625 71.5123125,9.3369375 C71.5123125,9.60075 71.4358125,9.808875 71.283375,9.961875 C71.1309375,10.114875 70.8125625,10.191375 70.32825,10.191375 L70.3288125,10.1908125 Z M9.07984987,12.8108803 C8.93479611,12.7751459 8.78031856,12.7340468 8.60255829,12.6921906 C8.59989812,14.1233771 8.596125,16.1420384 8.596125,16.0779375 C8.699625,19.5204375 1.918125,18.453375 3.889125,11.739375 C2.026125,10.974375 0.811125,10.002375 0.172125,9.219375 C-0.156375,8.733375 0.194625,8.224875 0.730125,8.598375 C0.802147584,8.64978735 0.873964985,8.69972066 0.9455625,8.74821618 L0.9455625,1.8028125 C0.9455625,0.8398125 1.6700625,0.0613125 2.5610625,0.0613125 L15.1295625,0.0613125 C16.021125,0.0613125 16.745625,0.8398125 16.745625,1.8028125 L16.745625,8.74211337 C16.8142405,8.6955341 16.8830573,8.6476334 16.9520625,8.598375 C17.4875625,8.224875 17.8385625,8.733375 17.5100625,9.219375 C16.8710625,10.002375 15.6560625,10.974375 13.7930625,11.739375 C15.7685625,18.453375 8.9825625,19.5204375 9.0860625,16.0779375 C9.0860625,16.1402853 9.08249294,14.2322373 9.07984987,12.8108803 Z M9.08185822,11.1728912 C9.12268697,10.6228518 9.43089063,10.2666829 10.2605625,10.308375 C11.3890314,10.3437625 13.4691621,10.5715438 15.8855625,9.26561897 L15.8855625,2.5903125 C15.8855625,1.4428125 15.5120625,0.9883125 14.4545625,0.9883125 L3.3305625,0.9883125 C2.2145625,0.9883125 1.9040625,1.3708125 1.9040625,2.5903125 L1.9040625,9.32279487 C4.27460192,10.5648204 6.30991565,10.343237 7.421625,10.308375 C7.89452693,10.2846111 8.19801175,10.3901061 8.37913246,10.5870853 C8.40826599,10.6118591 8.43858595,10.6389246 8.470125,10.668375 C8.67893805,10.8621191 8.88283088,11.0310332 9.08185822,11.1728912 Z M68.8156875,7.9014375 L68.81625,7.902 C69.1768125,7.902 69.48,8.028 69.7246875,8.2794375 C69.969375,8.530875 70.101,8.8965 70.1184375,9.3751875 L67.507875,9.3751875 C67.6198125,8.3925 68.05575,7.9014375 68.8156875,7.9014375 Z M8.6090625,7.4638125 C8.6090625,8.5798125 7.6415625,9.4843125 6.4490625,9.4843125 C5.2565625,9.4843125 4.2890625,8.5798125 4.2890625,7.4638125 C4.2890625,6.3478125 5.2565625,5.4433125 6.4490625,5.4433125 C7.6415625,5.4433125 8.6090625,6.3478125 8.6090625,7.4638125 Z M9.3155625,7.4638125 C9.3155625,6.3478125 10.2830625,5.4433125 11.4755625,5.4433125 C12.6680625,5.4433125 13.6355625,6.3478125 13.6355625,7.4638125 C13.6355625,8.5798125 12.6680625,9.4843125 11.4755625,9.4843125 C10.2830625,9.4843125 9.3155625,8.5798125 9.3155625,7.4638125 Z M40.5016875,14.472 C40.5016875,14.2183125 40.633875,14.1384375 40.83525,14.1384375 L41.707125,14.1384375 C42.186375,14.1384375 42.57225,14.3746875 42.57225,14.9304375 C42.57225,15.3855 42.256125,15.7224375 41.70375,15.7224375 L41.0715,15.7224375 L41.0715,16.3996875 C41.0715,16.570125 40.9606875,16.6843125 40.786875,16.6843125 C40.6130625,16.6843125 40.50225,16.570125 40.50225,16.3996875 L40.50225,14.4714375 L40.5016875,14.472 Z M43.0869375,15.0136875 C43.0869375,14.8606875 43.187625,14.7774375 43.3164375,14.7774375 C43.44525,14.7774375 43.5459375,14.8606875 43.5459375,15.0136875 L43.5459375,15.2083125 L43.5526875,15.2083125 C43.61175,14.99625 43.7265,14.7774375 43.972875,14.7774375 C44.132625,14.7774375 44.25075,14.8820625 44.25075,15.0238125 C44.25075,15.2116875 44.125875,15.2775 44.0004375,15.2775 L43.9104375,15.2775 C43.705125,15.2775 43.5943125,15.4198125 43.5943125,15.8405625 L43.5943125,16.4311875 C43.5943125,16.56675 43.538625,16.684875 43.340625,16.684875 C43.142625,16.684875 43.0869375,16.56675 43.0869375,16.4311875 L43.0869375,15.0136875 L43.0875,15.0136875 L43.0869375,15.0136875 Z M45.036,15.8270625 C45.036,16.09425 45.2098125,16.288875 45.505125,16.288875 C45.887625,16.288875 45.887625,16.0385625 46.092375,16.0385625 C46.213875,16.0385625 46.3005,16.1431875 46.3005,16.2365625 C46.3005,16.5425625 45.8105625,16.6843125 45.505125,16.6843125 C44.796375,16.6843125 44.528625,16.2050625 44.528625,15.7640625 C44.528625,15.1734375 44.886375,14.7774375 45.4876875,14.7774375 C46.071,14.7774375 46.4045625,15.190875 46.4045625,15.6076875 C46.4045625,15.7815 46.35225,15.8265 46.182375,15.8265 L45.036,15.8265 L45.036,15.8270625 Z M47.5858125,14.7774375 C47.9716875,14.7774375 48.360375,14.9304375 48.360375,15.1633125 C48.360375,15.2814375 48.2805,15.3855 48.148875,15.3855 C47.950875,15.3855 47.9435625,15.152625 47.624625,15.152625 C47.4474375,15.152625 47.3326875,15.201 47.3326875,15.309 C47.3326875,15.427125 47.4474375,15.4546875 47.6038125,15.4895625 L47.8153125,15.5385 C48.103875,15.604875 48.4475625,15.7258125 48.4475625,16.0801875 C48.4475625,16.493625 48.0481875,16.6843125 47.6656875,16.6843125 C47.20725,16.6843125 46.8253125,16.4795625 46.8253125,16.22925 C46.8253125,16.117875 46.88775,16.0171875 47.0300625,16.0171875 C47.248875,16.0171875 47.2696875,16.3299375 47.644875,16.3299375 C47.8254375,16.3299375 47.9401875,16.2500625 47.9401875,16.1454375 C47.9401875,16.016625 47.829375,15.996375 47.64825,15.9508125 L47.3495625,15.8776875 C47.05425,15.805125 46.8253125,15.6830625 46.8253125,15.34275 C46.8253125,14.9293125 47.2348125,14.7763125 47.5858125,14.7763125 L47.5858125,14.7774375 Z M49.375125,15.8270625 C49.375125,16.09425 49.5489375,16.288875 49.84425,16.288875 C50.22675,16.288875 50.22675,16.0385625 50.4315,16.0385625 C50.553,16.0385625 50.639625,16.1431875 50.639625,16.2365625 C50.639625,16.5425625 50.1496875,16.6843125 49.84425,16.6843125 C49.1355,16.6843125 48.8683125,16.2050625 48.8683125,15.7640625 C48.8683125,15.1734375 49.2260625,14.7774375 49.8268125,14.7774375 C50.410125,14.7774375 50.7436875,15.190875 50.7436875,15.6076875 C50.7436875,15.7815 50.691375,15.8265 50.5215,15.8265 L49.375125,15.8265 L49.375125,15.8270625 Z M51.244875,15.031125 C51.244875,14.878125 51.314625,14.7774375 51.474375,14.7774375 C51.634125,14.7774375 51.703875,14.878125 51.703875,15.031125 L51.703875,15.0969375 L51.710625,15.0969375 C51.8529375,14.9090625 52.0374375,14.7774375 52.3254375,14.7774375 C52.630875,14.7774375 52.9644375,14.9304375 52.9644375,15.4445625 L52.9644375,16.430625 C52.9644375,16.5661875 52.90875,16.6843125 52.71075,16.6843125 C52.51275,16.6843125 52.4570625,16.5661875 52.4570625,16.430625 L52.4570625,15.5446875 C52.4570625,15.3399375 52.356375,15.1936875 52.1375625,15.1936875 C51.921,15.1981875 51.748875,15.3765 51.7516875,15.5930625 L51.7516875,16.4300625 C51.7516875,16.565625 51.696,16.68375 51.498,16.68375 C51.3,16.68375 51.2443125,16.565625 51.2443125,16.4300625 L51.2443125,15.03 L51.244875,15.031125 Z M53.6731875,15.156 L53.5865625,15.156 C53.44425,15.156 53.3851875,15.1003125 53.3851875,14.9895 C53.3851875,14.8786875 53.44425,14.823 53.5865625,14.823 L53.6731875,14.823 L53.6731875,14.5141875 C53.6731875,14.3476875 53.773875,14.2605 53.926875,14.2605 C54.079875,14.2605 54.1805625,14.347125 54.1805625,14.5141875 L54.1805625,14.823 L54.3335625,14.823 C54.4831875,14.823 54.5630625,14.8685625 54.5630625,14.9895 C54.5630625,15.1104375 54.4831875,15.156 54.3335625,15.156 L54.1805625,15.156 L54.1805625,16.1701875 C54.1805625,16.2466875 54.2221875,16.2883125 54.3121875,16.2883125 L54.3853125,16.2883125 C54.496125,16.2883125 54.5625,16.35075 54.5625,16.45875 C54.5625,16.6044375 54.437625,16.6843125 54.1940625,16.6843125 C53.825625,16.6843125 53.6731875,16.5313125 53.6731875,16.232625 L53.6731875,15.1554375 L53.6731875,15.156 Z M56.8141875,15.663375 L56.1155625,14.5029375 C56.088,14.4579375 56.0671875,14.405625 56.0671875,14.3533125 C56.0671875,14.1586875 56.244375,14.092875 56.35575,14.092875 C56.4913125,14.092875 56.55375,14.1485625 56.6128125,14.259375 L57.1095,15.172875 L57.6028125,14.259375 C57.6691875,14.1345 57.731625,14.092875 57.8491875,14.092875 C57.95325,14.092875 58.131,14.1586875 58.131,14.3533125 C58.131,14.405625 58.1101875,14.457375 58.0820625,14.5029375 L57.384,15.663375 L57.384,16.3996875 C57.384,16.570125 57.2731875,16.6843125 57.099375,16.6843125 C56.9255625,16.6843125 56.81475,16.570125 56.81475,16.3996875 L56.81475,15.663375 L56.8141875,15.663375 Z M59.1418125,14.7774375 C59.75325,14.7774375 60.0795,15.19425 60.0795,15.7291875 C60.0795,16.2365625 59.833125,16.6843125 59.1418125,16.6843125 C58.4505,16.6843125 58.204125,16.2365625 58.204125,15.7291875 C58.204125,15.19425 58.530375,14.7774375 59.1418125,14.7774375 Z M62.2996875,16.4311875 C62.2996875,16.5841875 62.2299375,16.684875 62.0701875,16.684875 C61.9104375,16.684875 61.8406875,16.5841875 61.8406875,16.4311875 L61.8406875,16.3648125 L61.8339375,16.3648125 C61.691625,16.5526875 61.507125,16.6843125 61.219125,16.6843125 C60.9136875,16.6843125 60.580125,16.5313125 60.580125,16.0171875 L60.580125,15.0305625 C60.580125,14.895 60.6358125,14.776875 60.8338125,14.776875 C61.0318125,14.776875 61.0875,14.895 61.0875,15.0305625 L61.0875,15.9165 C61.0875,16.12125 61.1881875,16.2675 61.407,16.2675 C61.6235625,16.263 61.7956875,16.0846875 61.792875,15.868125 L61.792875,15.031125 C61.792875,14.8955625 61.8485625,14.7774375 62.0465625,14.7774375 C62.2445625,14.7774375 62.30025,14.8955625 62.30025,15.031125 L62.30025,16.4311875 L62.2996875,16.4311875 Z M62.9049375,15.0136875 C62.9049375,14.8606875 63.005625,14.7774375 63.1344375,14.7774375 C63.26325,14.7774375 63.3639375,14.8606875 63.3639375,15.0136875 L63.3639375,15.2083125 L63.3706875,15.2083125 C63.42975,14.99625 63.5445,14.7774375 63.790875,14.7774375 C63.950625,14.7774375 64.06875,14.8820625 64.06875,15.0238125 C64.06875,15.2116875 63.943875,15.2775 63.8184375,15.2775 L63.7284375,15.2775 C63.5236875,15.2775 63.4123125,15.4198125 63.4123125,15.8405625 L63.4123125,16.4311875 C63.4123125,16.56675 63.356625,16.684875 63.158625,16.684875 C62.960625,16.684875 62.9049375,16.56675 62.9049375,16.4311875 L62.9049375,15.0136875 Z M65.145375,14.7774375 C65.53125,14.7774375 65.9199375,14.9304375 65.9199375,15.1633125 C65.9199375,15.2814375 65.8400625,15.3855 65.707875,15.3855 C65.509875,15.3855 65.5025625,15.152625 65.183625,15.152625 C65.0064375,15.152625 64.8916875,15.201 64.8916875,15.309 C64.8916875,15.427125 65.0064375,15.4546875 65.1628125,15.4895625 L65.374875,15.5385 C65.662875,15.604875 66.007125,15.7258125 66.007125,16.0801875 C66.007125,16.493625 65.60775,16.6843125 65.22525,16.6843125 C64.7668125,16.6843125 64.384875,16.4795625 64.384875,16.22925 C64.384875,16.117875 64.4473125,16.0171875 64.5901875,16.0171875 C64.809,16.0171875 64.8298125,16.3299375 65.205,16.3299375 C65.3855625,16.3299375 65.5003125,16.2500625 65.5003125,16.1454375 C65.5003125,16.016625 65.3889375,15.996375 65.208375,15.9508125 L64.9096875,15.8776875 C64.614375,15.805125 64.3854375,15.6830625 64.3854375,15.34275 C64.3854375,14.9293125 64.7949375,14.7763125 65.1459375,14.7763125 L65.145375,14.7774375 Z M66.93525,15.8270625 C66.93525,16.09425 67.1090625,16.288875 67.404375,16.288875 C67.7863125,16.288875 67.7863125,16.0385625 67.991625,16.0385625 C68.113125,16.0385625 68.19975,16.1431875 68.19975,16.2365625 C68.19975,16.5425625 67.7098125,16.6843125 67.404375,16.6843125 C66.695625,16.6843125 66.427875,16.2050625 66.427875,15.7640625 C66.427875,15.1734375 66.785625,14.7774375 67.3869375,14.7774375 C67.97025,14.7774375 68.3038125,15.190875 68.3038125,15.6076875 C68.3038125,15.7815 68.2515,15.8265 68.081625,15.8265 L66.9358125,15.8265 L66.93525,15.8270625 Z M68.832,14.347125 C68.832,14.180625 68.9326875,14.0934375 69.0856875,14.0934375 C69.2386875,14.0934375 69.339375,14.1800625 69.339375,14.347125 L69.339375,16.4311875 C69.339375,16.5976875 69.2386875,16.684875 69.0856875,16.684875 C68.9326875,16.684875 68.832,16.59825 68.832,16.4311875 L68.832,14.347125 Z M70.1038125,15.156 L69.9890625,15.156 C69.84675,15.156 69.7876875,15.1003125 69.7876875,14.9895 C69.7876875,14.8786875 69.84675,14.823 69.9890625,14.823 L70.1038125,14.823 L70.1038125,14.5693125 C70.1038125,14.2498125 70.367625,14.079375 70.6629375,14.079375 C70.846875,14.079375 70.9965,14.1525 70.9965,14.322375 C70.9965,14.4163125 70.923375,14.4961875 70.833375,14.4961875 C70.795125,14.4961875 70.76025,14.4860625 70.7225625,14.4860625 C70.6494375,14.4860625 70.6111875,14.535 70.6111875,14.6041875 L70.6111875,14.823 L70.7675625,14.823 C70.9171875,14.823 70.9970625,14.8685625 70.9970625,14.9895 C70.9970625,15.1104375 70.9171875,15.156 70.7675625,15.156 L70.6111875,15.156 L70.6111875,16.430625 C70.6111875,16.597125 70.5105,16.6843125 70.3575,16.6843125 C70.2045,16.6843125 70.1038125,16.5976875 70.1038125,16.430625 L70.1038125,15.156 Z" id="Combined-Shape"></path>
        </g>
    </g>
</svg>