<?xml version="1.0" encoding="UTF-8"?>
<svg width="22px" height="21px" viewBox="0 0 22 21" version="1.1" xmlns="http://www.w3.org/2000/svg" xmlns:xlink="http://www.w3.org/1999/xlink">
    <!-- Generator: Sketch 51.2 (57519) - http://www.bohemiancoding.com/sketch -->
    <title>Icon/M/Linkedin/White Copy 3</title>
    <desc>Created with Sketch.</desc>
    <defs></defs>
    <g id="Observatorio" stroke="none" stroke-width="1" fill="none" fill-rule="evenodd">
        <g id="1400_1" transform="translate(-842.000000, -2528.000000)" fill="#333333" fill-rule="nonzero">
            <g id="evento" transform="translate(773.000000, 2493.000000)">
                <g id="Group-2" transform="translate(65.000000, 30.000000)">
                    <g id="Icon/M/Linkedin/Black">
                        <path d="M23.4730854,5 L5.55353331,5 C4.69547257,5 4,5.67342683 4,6.50460339 L4,24.4947619 C4,25.3259873 4.69571699,26 5.55353331,26 L23.4730854,26 C24.3309506,26 25.025641,25.3255479 25.025641,24.4947619 L25.025641,6.50460339 C25.025641,5.67367095 24.3309506,5 23.4730854,5 Z M10.374375,22.5784273 L7.19755089,22.5784273 L7.19755089,13.097185 L10.374375,13.097185 L10.374375,22.5784273 Z M8.78628067,11.8018892 L8.76491837,11.8018892 C7.6995895,11.8018892 7.00900533,11.0742192 7.00900533,10.1632157 C7.00900533,9.23385443 7.71987636,8.52590917 8.80632311,8.52590917 C9.89286763,8.52590917 10.5612096,9.23365914 10.5823275,10.1632157 C10.5823275,11.0744145 9.89311205,11.8018892 8.78628067,11.8018892 Z M21.8258904,22.5784273 L18.6500928,22.5784273 L18.6500928,17.5056333 C18.6500928,16.2309901 18.1899478,15.3612427 17.0414673,15.3612427 C16.1628753,15.3612427 15.6413319,15.9480073 15.4123104,16.51451 C15.3274478,16.7168358 15.3064277,16.9998187 15.3064277,17.2824109 L15.3064277,22.578232 L12.1312168,22.578232 C12.1312168,22.578232 12.1727682,13.9862666 12.1312168,13.0970385 L15.3069165,13.0970385 L15.3069165,14.4412068 C15.7284921,13.7953166 16.4818433,12.8739625 18.1682922,12.8739625 C20.2585718,12.8739625 21.8258904,14.2282862 21.8258904,17.1418471 L21.8258904,22.5784273 Z M15.2863853,14.5219408 C15.3009718,14.4980533 15.3213404,14.4693096 15.3415776,14.4413533 L15.3415776,14.5219408 L15.2863853,14.5219408 Z" id="linkedin_icon"></path>
                    </g>
                </g>
            </g>
        </g>
    </g>
</svg>