<?xml version="1.0" encoding="UTF-8"?>
<svg width="22px" height="18px" viewBox="0 0 22 18" version="1.1" xmlns="http://www.w3.org/2000/svg" xmlns:xlink="http://www.w3.org/1999/xlink">
    <!-- Generator: Sketch 51.2 (57519) - http://www.bohemiancoding.com/sketch -->
    <title>icon-twitter</title>
    <desc>Created with Sketch.</desc>
    <defs></defs>
    <g id="Observatorio" stroke="none" stroke-width="1" fill="none" fill-rule="evenodd">
        <g id="1400_home" transform="translate(-1181.000000, -5360.000000)" fill="#FFFFFF">
            <g id="footer" transform="translate(0.000000, 5182.000000)">
                <g id="social-icons" transform="translate(1061.000000, 178.000000)">
                    <path d="M126.918853,17.9987701 C135.221477,17.9987701 139.76083,11.0743761 139.76083,5.07111152 C139.76083,4.87512656 139.757169,4.67914159 139.748627,4.48315662 C140.632186,3.83955591 141.394539,3.04319023 142,2.13133699 C141.176589,2.49840576 140.302885,2.73913568 139.408176,2.84545722 C140.350432,2.27672141 141.055028,1.38402437 141.391092,0.333174892 C140.505311,0.86216399 139.535846,1.2350218 138.52471,1.43559034 C137.672664,0.519372541 136.479868,-0.000554925805 135.231239,4.44465992e-07 C132.734808,0.00405637144 130.714138,2.03845746 130.717511,4.54440192 C130.717511,4.89962468 130.757779,5.24627309 130.834655,5.57944754 C127.202577,5.39504073 123.820007,3.66880761 121.531422,0.831711658 C121.129995,1.5255366 120.919042,2.31381118 120.920073,3.11616146 C120.918793,4.63379668 121.672309,6.05190937 122.928615,6.89622155 C122.211754,6.87407051 121.510722,6.67913409 120.884686,6.32786514 L120.883466,6.38666063 C120.881726,8.54615123 122.394964,10.4082885 124.502746,10.8404191 C123.838315,11.0222169 123.14126,11.0490322 122.464918,10.918813 C123.053316,12.7674797 124.747921,14.0357676 126.680903,14.0741711 C125.083964,15.3374409 123.109482,16.0235695 121.076266,16.0217717 C120.71263,16.0217717 120.353874,16.0009483 120,15.9593015 C122.062642,17.2936097 124.465004,18.0021789 126.918853,17.999995" id="icon-twitter"></path>
                </g>
            </g>
        </g>
    </g>
</svg>