<?xml version="1.0" encoding="UTF-8"?>
<svg width="18px" height="18px" viewBox="0 0 18 18" version="1.1" xmlns="http://www.w3.org/2000/svg" xmlns:xlink="http://www.w3.org/1999/xlink">
    <!-- Generator: Sketch 50.2 (55047) - http://www.bohemiancoding.com/sketch -->
    <title>Custom Preset</title>
    <desc>Created with Sketch.</desc>
    <defs></defs>
    <g id="Custom-Preset" stroke="none" stroke-width="1" fill="none" fill-rule="evenodd">
        <path d="M43.7382452,3.88265461 C43.7382452,3.88265461 44,5.95311069 44,8.02466573 L44,9.96654253 C44,12.0369986 43.73715,14.1085536 43.73715,14.1085536 C43.73715,14.1085536 43.4819664,15.8712986 42.6956067,16.6482691 C41.698967,17.6681117 40.5807592,17.6725075 40.0671064,17.7329507 C36.398158,17.9912083 30.8892594,18 30.8892594,18 C30.8892594,18 24.0704916,17.9384578 21.9731674,17.7428414 C21.3894213,17.6351425 20.0784567,17.6681117 19.081817,16.6482691 C18.2954574,15.8712986 18.0391786,14.1085536 18.0391786,14.1085536 C18.0391786,14.1085536 17.7763285,12.0369986 17.7763285,9.96544355 L17.7763285,8.0257647 C17.7763285,5.95420966 18.0391786,3.88265461 18.0391786,3.88265461 C18.0391786,3.88265461 18.2954574,2.11990964 19.081817,1.34403809 C20.0784567,0.324195617 21.1955694,0.318700776 21.7092221,0.259356493 C25.3781705,0 30.8826883,0 30.8826883,0 L30.8936403,0 C30.8936403,0 36.398158,0 40.0682016,0.259356493 C40.5807592,0.318700776 41.698967,0.324195617 42.6956067,1.34293913 C43.4819664,2.11990964 43.7382452,3.88375359 43.7382452,3.88375359 L43.7382452,3.88265461 Z M16.4237461,14.5657244 L14.7546484,14.5657244 L14.7546484,13.6195128 C14.1227131,14.3294462 13.586061,14.6888088 13.0023149,14.6888088 C12.4886621,14.6888088 12.1327193,14.4514317 11.9542003,14.0228341 C11.8457747,13.7623787 11.768015,13.3557604 11.768015,12.7590207 L11.768015,5.8695891 L13.4371126,5.8695891 L13.4371126,12.9293607 C13.4765401,13.1711338 13.5805849,13.2590513 13.7930554,13.2590513 C14.1128563,13.2590513 14.4019913,12.9865071 14.7546484,12.4985652 L14.7546484,5.87068808 L16.4237461,5.87068808 L16.4237461,14.5657244 Z M10.539191,8.71152085 L10.539191,11.8106112 C10.539191,12.7348434 10.3847666,13.373344 10.0474424,13.8085354 C9.60278775,14.4019781 8.87118854,14.7151841 8.16806467,14.7151841 C7.46603608,14.7151841 6.74648417,14.4019781 6.30292468,13.8085354 C5.96012445,13.373344 5.7969384,12.7348434 5.7969384,11.8106112 L5.79912876,8.71921363 C5.79912876,7.78948654 5.98202859,7.08504792 6.32482892,6.64546065 C6.76838831,6.05091886 7.37294339,5.80694792 8.16806467,5.80694792 C8.87118854,5.80694792 9.56774112,6.05091886 10.0123958,6.64546065 C10.3486247,7.08504792 10.539191,7.78289273 10.539191,8.71152085 Z M3.95370255,9.8324684 L3.95370255,14.5668234 L2.1969882,14.5668234 L2.1969882,9.8324684 C2.1969882,9.8324684 0.376751676,4.02552049 0,2.94193785 L1.84433103,2.94193785 L3.07753579,7.47737958 L4.30416926,2.94193785 L6.1474051,2.94193785 L3.95370255,9.8324684 Z M41.8052023,10.5204225 L41.8052023,8.75987545 C41.8052023,7.84003908 41.620112,7.16747054 41.2882639,6.73227914 C40.842514,6.14323219 40.2094835,5.83112522 39.4121718,5.83112522 C38.6006222,5.83112522 37.9664965,6.14323219 37.506509,6.73227914 C37.1691848,7.16747054 36.9720473,7.87850296 36.9720473,8.79833934 L36.9720473,11.8106112 C36.9720473,12.7249527 37.1888986,13.3656512 37.527318,13.7953477 C37.9873055,14.3832957 38.6192408,14.6767201 39.4515992,14.6767201 C40.2817672,14.6767201 40.9345115,14.3690091 41.3736901,13.7447951 C41.567542,13.4689541 41.6923958,13.1557482 41.746061,12.8106722 C41.7602987,12.6546187 41.8030118,12.298553 41.8030118,11.7963246 L41.8030118,11.5523536 L40.1339141,11.5523536 C40.1339141,12.1787655 40.1371998,12.5502168 40.122962,12.6348373 C40.0309645,13.0524452 39.8031612,13.2601502 39.4110766,13.2601502 C38.8656627,13.2601502 38.635669,12.8601257 38.641145,12.0655717 L38.641145,10.5193235 L41.8062974,10.5193235 L41.8052023,10.5204225 Z M34.4344492,5.82013554 C33.8507031,5.82013554 33.2691475,6.17180536 32.7554947,6.79162342 L32.7576851,3.0298553 L31.1762041,3.0298553 L31.1762041,14.5657244 L32.7576851,14.5657244 L32.7598756,13.6997374 C33.2910516,14.3437328 33.8704169,14.6778192 34.4355445,14.6778192 C35.0685749,14.6778192 35.5307529,14.3448318 35.7432234,13.7052323 C35.8494586,13.3403748 35.9184567,12.7788022 35.9184567,11.9831491 L35.9184567,8.53898285 C35.9184567,7.72464742 35.8122216,7.16747054 35.7059863,6.82129556 C35.4935158,6.1773002 35.0685749,5.81903657 34.4355445,5.81903657 L34.4344492,5.82013554 Z M29.8597636,14.5679223 L29.8597636,5.95530863 L28.1906658,5.95530863 L28.1906658,12.4985652 C27.8380087,12.9865071 27.5488736,13.2590513 27.2290728,13.2590513 C27.0166024,13.2590513 26.9114624,13.1711338 26.87313,12.9293607 L26.87313,5.95640759 L25.2051276,5.95640759 L25.2051276,12.7590207 C25.2051276,13.3557604 25.2817922,13.7623787 25.3902178,14.0228341 C25.5687368,14.4514317 25.9246795,14.6888088 26.4372371,14.6888088 C27.0220784,14.6888088 27.5587306,14.3294462 28.1906658,13.6195128 L28.1906658,14.5657244 L29.8597636,14.5657244 L29.8597636,14.5679223 Z M23.5360298,14.5679223 L23.5360298,4.66621894 L25.4679776,4.66621894 L25.4679776,3.0298553 L19.9360796,3.03095427 L19.9360796,4.66511997 L21.7804107,4.66511997 L21.7804107,14.5668234 L23.5360298,14.5668234 L23.5360298,14.5679223 Z M8.87118854,11.9853471 L8.87118854,8.53788387 C8.95880522,7.67739179 8.68609835,7.27407046 8.16806467,7.27407046 C7.65003109,7.27407046 7.3784194,7.67739179 7.46603608,8.53788387 L7.46603608,11.9820502 C7.3784194,12.8425423 7.65003109,13.2700409 8.16806467,13.2700409 C8.68609835,13.2700409 8.95880522,12.8425423 8.87118854,11.9820502 L8.87118854,11.9853471 Z M38.641145,8.27852738 C38.641145,7.47408266 38.8656627,7.25428903 39.3968388,7.25428903 C39.9247293,7.25428903 40.1339141,7.49386409 40.1339141,8.28951707 L40.1339141,9.22913486 L38.641145,9.2313328 L38.641145,8.27852738 Z M34.249359,12.0699677 C34.249359,12.9315587 34.0434599,13.2612492 33.5845676,13.2612492 C33.3228127,13.2612492 33.0216304,13.129373 32.7554947,12.8689176 L32.7576851,7.64552171 C33.0227256,7.38836315 33.3228127,7.25209109 33.5845676,7.25209109 C34.0434599,7.25209109 34.2504542,7.50485378 34.2504542,8.36644484 L34.2504542,12.0677698 L34.249359,12.0699677 Z" id="Rectangle" fill="#000000"></path>
    </g>
</svg>