<?xml version="1.0" encoding="UTF-8"?>
<svg width="69px" height="18px" viewBox="0 0 69 18" version="1.1" xmlns="http://www.w3.org/2000/svg" xmlns:xlink="http://www.w3.org/1999/xlink">
    <!-- Generator: Sketch 51.2 (57519) - http://www.bohemiancoding.com/sketch -->
    <title>icon-inslides</title>
    <desc>Created with Sketch.</desc>
    <defs></defs>
    <g id="Observatorio" stroke="none" stroke-width="1" fill="none" fill-rule="evenodd">
        <g id="1400_home" transform="translate(-1281.000000, -5360.000000)" fill="#FFFFFF">
            <g id="footer" transform="translate(0.000000, 5182.000000)">
                <g id="social-icons" transform="translate(1061.000000, 178.000000)">
                    <g id="icon-inslides" transform="translate(220.000000, 0.000000)">
                        <path d="M31.3376422,7.35960379 C31.0631541,6.98056084 30.6631082,6.7910422 30.1374927,6.7910422 C29.9739678,6.7910422 29.8133655,6.81164206 29.6556808,6.85284238 C29.4979961,6.8940427 29.356374,6.95721558 29.2308103,7.04236291 C29.1052466,7.12751024 29.0045051,7.23737611 28.9285829,7.37196382 C28.8526606,7.50655154 28.8147001,7.66448373 28.8147001,7.84576514 C28.8147001,8.1094472 28.8935412,8.31407239 29.0512259,8.45964686 C29.2089106,8.60522132 29.4045534,8.72470046 29.6381604,8.81808786 C29.8717673,8.91147525 30.127271,8.99524798 30.4046792,9.06940856 C30.6820875,9.14356913 30.9375912,9.24244842 31.1711981,9.36604938 C31.404805,9.48965035 31.6004479,9.65307583 31.7581326,9.85633075 C31.9158172,10.0595857 31.9946584,10.336997 31.9946584,10.6885731 C31.9946584,10.9522551 31.9347975,11.1898401 31.815074,11.4013351 C31.6953504,11.61283 31.5376681,11.7899888 31.3420223,11.9328165 C31.1463765,12.0756443 30.9273733,12.1855102 30.6850061,12.2624175 C30.442639,12.3393247 30.1988154,12.3777778 29.9535281,12.3777778 C29.5739169,12.3777778 29.2132916,12.3104849 28.8716415,12.1758972 C28.5299913,12.0413095 28.2394471,11.8202044 28,11.5125754 L28.569414,11.1252943 C28.703738,11.339536 28.8906207,11.5112014 29.1300678,11.6402957 C29.3695149,11.7693901 29.6527591,11.8339363 29.9798088,11.8339363 C30.1374934,11.8339363 30.2951758,11.8105898 30.4528604,11.7638961 C30.6105451,11.7172024 30.7521672,11.6485362 30.8777309,11.5578955 C31.0032946,11.4672548 31.1069561,11.3560156 31.1887185,11.2241746 C31.270481,11.0923335 31.3113616,10.941268 31.3113616,10.7709733 C31.3113616,10.5677184 31.2661009,10.3987996 31.1755782,10.2642119 C31.0850555,10.1296242 30.9653338,10.0170117 30.8164094,9.92637094 C30.667485,9.83573024 30.4981225,9.76019745 30.3083169,9.69977031 C30.1185112,9.63934318 29.9228684,9.57891694 29.7213824,9.51848981 C29.5198964,9.45806267 29.3242536,9.3893965 29.1344479,9.31248923 C28.9446423,9.23558197 28.7752798,9.138076 28.6263554,9.01996842 C28.477431,8.90186083 28.3577093,8.7535419 28.2671866,8.57500718 C28.1766639,8.39647245 28.1314032,8.17262074 28.1314032,7.90344531 C28.1314032,7.62328312 28.1883441,7.37883155 28.3022274,7.17008326 C28.4161108,6.96133497 28.567953,6.78829622 28.7577587,6.65096181 C28.9475643,6.51362741 29.1621874,6.41200148 29.4016345,6.34608096 C29.6410816,6.28016045 29.8863652,6.24720069 30.1374927,6.24720069 C30.487903,6.24720069 30.8061877,6.29938698 31.0923562,6.40376113 C31.3785247,6.50813527 31.6442485,6.69216061 31.8895358,6.95584266 L31.3376422,7.35960379 Z M33.8277336,12.2294574 L33.2495593,12.2294574 L33.2495593,6 L33.8277336,6 L33.8277336,12.2294574 Z M36.1163399,6.88992248 C36.1163399,7.00528338 36.0725393,7.1000427 35.9849367,7.17420327 C35.8973341,7.24836385 35.8009727,7.28544358 35.6958496,7.28544358 C35.5907265,7.28544358 35.4943651,7.24836385 35.4067625,7.17420327 C35.3191599,7.1000427 35.2753592,7.00528338 35.2753592,6.88992248 C35.2753592,6.77456158 35.3191599,6.67980227 35.4067625,6.60564169 C35.4943651,6.53148111 35.5907265,6.49440138 35.6958496,6.49440138 C35.8009727,6.49440138 35.8973341,6.53148111 35.9849367,6.60564169 C36.0725393,6.67980227 36.1163399,6.77456158 36.1163399,6.88992248 Z M35.9849367,12.2294574 L35.4067625,12.2294574 L35.4067625,8.37312661 L35.9849367,8.37312661 L35.9849367,12.2294574 Z M37.782971,10.301292 C37.782971,10.5155337 37.8194715,10.7160389 37.8924737,10.9028137 C37.9654759,11.0895885 38.0691374,11.2516406 38.2034614,11.388975 C38.3377853,11.5263094 38.4998477,11.634802 38.6896533,11.7144559 C38.879459,11.7941099 39.0940821,11.8339363 39.3335292,11.8339363 C39.5671361,11.8339363 39.7846793,11.7941099 39.9861653,11.7144559 C40.1876512,11.634802 40.3613938,11.5263094 40.5073981,11.388975 C40.6534024,11.2516406 40.7672841,11.0895885 40.8490465,10.9028137 C40.9308089,10.7160389 40.9716895,10.5155337 40.9716895,10.301292 C40.9716895,10.0870503 40.9308089,9.8865451 40.8490465,9.69977031 C40.7672841,9.51299553 40.6534024,9.35094336 40.5073981,9.21360896 C40.3613938,9.07627455 40.1876512,8.967782 39.9861653,8.88812805 C39.7846793,8.8084741 39.5671361,8.76864772 39.3335292,8.76864772 C39.0940821,8.76864772 38.879459,8.8084741 38.6896533,8.88812805 C38.4998477,8.967782 38.3377853,9.07627455 38.2034614,9.21360896 C38.0691374,9.35094336 37.9654759,9.51299553 37.8924737,9.69977031 C37.8194715,9.8865451 37.782971,10.0870503 37.782971,10.301292 Z M41.5235831,12.2294574 L40.9454089,12.2294574 L40.9454089,11.5867356 L40.9278885,11.5867356 C40.8344457,11.7185766 40.7234841,11.8311891 40.5950003,11.9245765 C40.4665165,12.0179639 40.3321945,12.09487 40.1920303,12.1552972 C40.0518662,12.2157243 39.9073241,12.2596706 39.7583997,12.2871375 C39.6094752,12.3146044 39.4678532,12.3283376 39.3335292,12.3283376 C39.0123197,12.3283376 38.7188554,12.2775247 38.4531275,12.1758972 C38.1873996,12.0742698 37.9581763,11.9328174 37.7654506,11.751536 C37.5727249,11.5702546 37.4223427,11.3560162 37.3142995,11.1088142 C37.2062563,10.8616123 37.1522355,10.5924409 37.1522355,10.301292 C37.1522355,10.0101431 37.2062563,9.74097166 37.3142995,9.49376974 C37.4223427,9.24656781 37.5727249,9.03232936 37.7654506,8.85104795 C37.9581763,8.66976654 38.1873996,8.52831422 38.4531275,8.42668676 C38.7188554,8.32505931 39.0123197,8.27424634 39.3335292,8.27424634 C39.4678532,8.27424634 39.6094752,8.28797957 39.7583997,8.31544645 C39.9073241,8.34291333 40.0518662,8.38685968 40.1920303,8.44728682 C40.3321945,8.50771396 40.4665165,8.58462007 40.5950003,8.67800746 C40.7234841,8.77139486 40.8344457,8.88400738 40.9278885,9.01584841 L40.9454089,9.01584841 L40.9454089,6 L41.5235831,6 L41.5235831,12.2294574 Z M46.0285241,10.0046512 C46.0285241,9.63659496 45.9117224,9.33858378 45.6781155,9.11060867 C45.4445086,8.88263356 45.1174638,8.76864772 44.6969713,8.76864772 C44.5100858,8.76864772 44.3290431,8.8029808 44.1538379,8.871648 C43.9786327,8.94031521 43.8253305,9.03232788 43.6939266,9.14768877 C43.5625227,9.26304967 43.4574012,9.39488872 43.3785588,9.54320988 C43.2997165,9.69153103 43.2602959,9.84534326 43.2602959,10.0046512 L46.0285241,10.0046512 Z M43.2427755,10.4496124 C43.260296,10.6418806 43.3099367,10.8231593 43.3916992,10.9934539 C43.4734616,11.1637486 43.5815032,11.3106942 43.7158271,11.4342951 C43.8501511,11.5578961 44.0049134,11.6554021 44.1801186,11.726816 C44.3553238,11.7982299 44.5451266,11.8339363 44.7495326,11.8339363 C45.0590618,11.8339363 45.3262457,11.7666434 45.5510924,11.6320557 C45.775939,11.497468 45.9467615,11.3422824 46.063565,11.1664944 L46.510336,11.5125754 C46.2650487,11.8037243 45.9949448,12.0124695 45.700016,12.1388171 C45.4050873,12.2651648 45.0882626,12.3283376 44.7495326,12.3283376 C44.4458436,12.3283376 44.1640595,12.2775247 43.9041718,12.1758972 C43.6442841,12.0742698 43.4209008,11.9328174 43.2340153,11.751536 C43.0471297,11.5702546 42.8996676,11.3560162 42.7916244,11.1088142 C42.6835812,10.8616123 42.6295604,10.5924409 42.6295604,10.301292 C42.6295604,10.0101431 42.6821212,9.74097166 42.7872443,9.49376974 C42.8923674,9.24656781 43.0383695,9.03232936 43.2252551,8.85104795 C43.4121406,8.66976654 43.6311438,8.52831422 43.8822712,8.42668676 C44.1333987,8.32505931 44.4049627,8.27424634 44.6969713,8.27424634 C45.0065005,8.27424634 45.2839045,8.32643263 45.5291918,8.43080678 C45.7744791,8.53518092 45.9803421,8.67388659 46.146787,8.84692794 C46.313232,9.01996928 46.4402538,9.22322115 46.5278564,9.45668964 C46.615459,9.69015812 46.6592597,9.93872966 46.6592597,10.2024117 L46.6592597,10.4496124 L43.2427755,10.4496124 Z M50.9101544,7.35960379 C50.6356662,6.98056084 50.2356204,6.7910422 49.7100048,6.7910422 C49.54648,6.7910422 49.3858776,6.81164206 49.2281929,6.85284238 C49.0705083,6.8940427 48.9288862,6.95721558 48.8033225,7.04236291 C48.6777588,7.12751024 48.5770173,7.23737611 48.501095,7.37196382 C48.4251728,7.50655154 48.3872122,7.66448373 48.3872122,7.84576514 C48.3872122,8.1094472 48.4660534,8.31407239 48.623738,8.45964686 C48.7814227,8.60522132 48.9770656,8.72470046 49.2106725,8.81808786 C49.4442794,8.91147525 49.6997832,8.99524798 49.9771914,9.06940856 C50.2545996,9.14356913 50.5101033,9.24244842 50.7437103,9.36604938 C50.9773172,9.48965035 51.1729601,9.65307583 51.3306447,9.85633075 C51.4883294,10.0595857 51.5671706,10.336997 51.5671706,10.6885731 C51.5671706,10.9522551 51.5073097,11.1898401 51.3875861,11.4013351 C51.2678626,11.61283 51.1101803,11.7899888 50.9145345,11.9328165 C50.7188887,12.0756443 50.4998855,12.1855102 50.2575183,12.2624175 C50.0151511,12.3393247 49.7713275,12.3777778 49.5260403,12.3777778 C49.146429,12.3777778 48.7858037,12.3104849 48.4441536,12.1758972 C48.1025035,12.0413095 47.8119592,11.8202044 47.5725122,11.5125754 L48.1419262,11.1252943 C48.2762502,11.339536 48.4631329,11.5112014 48.70258,11.6402957 C48.9420271,11.7693901 49.2252712,11.8339363 49.5523209,11.8339363 C49.7100056,11.8339363 49.8676879,11.8105898 50.0253726,11.7638961 C50.1830572,11.7172024 50.3246793,11.6485362 50.450243,11.5578955 C50.5758068,11.4672548 50.6794683,11.3560156 50.7612307,11.2241746 C50.8429931,11.0923335 50.8838737,10.941268 50.8838737,10.7709733 C50.8838737,10.5677184 50.8386131,10.3987996 50.7480904,10.2642119 C50.6575677,10.1296242 50.5378459,10.0170117 50.3889215,9.92637094 C50.2399971,9.83573024 50.0706346,9.76019745 49.880829,9.69977031 C49.6910234,9.63934318 49.4953805,9.57891694 49.2938946,9.51848981 C49.0924086,9.45806267 48.8967657,9.3893965 48.7069601,9.31248923 C48.5171545,9.23558197 48.347792,9.138076 48.1988676,9.01996842 C48.0499432,8.90186083 47.9302214,8.7535419 47.8396987,8.57500718 C47.7491761,8.39647245 47.7039154,8.17262074 47.7039154,7.90344531 C47.7039154,7.62328312 47.7608562,7.37883155 47.8747396,7.17008326 C47.988623,6.96133497 48.1404652,6.78829622 48.3302708,6.65096181 C48.5200764,6.51362741 48.7346996,6.41200148 48.9741467,6.34608096 C49.2135938,6.28016045 49.4588774,6.24720069 49.7100048,6.24720069 C50.0604152,6.24720069 50.3786998,6.29938698 50.6648683,6.40376113 C50.9510368,6.50813527 51.2167607,6.69216061 51.462048,6.95584266 L50.9101544,7.35960379 Z M52.6906682,6 L53.2688425,6 L53.2688425,8.99112834 L53.2863629,8.99112834 C53.3506048,8.88675419 53.432366,8.79062155 53.531649,8.70272753 C53.6309319,8.61483352 53.7418935,8.53930073 53.8645372,8.4761269 C53.9871808,8.41295308 54.1171227,8.36351343 54.2543668,8.32780649 C54.3916108,8.29209954 54.5273928,8.27424634 54.6617168,8.27424634 C55.1873324,8.27424634 55.575698,8.40471207 55.8268255,8.66564743 C56.0779529,8.9265828 56.2035148,9.29875344 56.2035148,9.78217054 L56.2035148,12.2294574 L55.6253405,12.2294574 L55.6253405,10.0952914 C55.6253405,9.66680808 55.5464994,9.33858378 55.3888147,9.11060867 C55.23113,8.88263356 54.9391258,8.76864772 54.5127931,8.76864772 C54.4835923,8.76864772 54.4018311,8.7796343 54.2675071,8.80160781 C54.1331831,8.82358131 53.991561,8.88400754 53.8426366,8.98288831 C53.6937122,9.08176908 53.5608503,9.23008801 53.4440468,9.42784955 C53.3272433,9.6256111 53.2688425,9.90027578 53.2688425,10.2518519 L53.2688425,12.2294574 L52.6906682,12.2294574 L52.6906682,6 Z M59.946317,10.309532 C59.8003126,10.309532 59.61781,10.3163986 59.3988035,10.3301321 C59.179797,10.3438655 58.9695539,10.3768253 58.7680679,10.4290123 C58.566582,10.4811994 58.3942995,10.5622255 58.2512152,10.672093 C58.108131,10.7819605 58.0365899,10.9330261 58.0365899,11.1252943 C58.0365899,11.2516419 58.0643303,11.3601345 58.119812,11.4507752 C58.1752936,11.5414159 58.2497547,11.6155754 58.3431975,11.6732558 C58.4366402,11.7309363 58.5403018,11.772136 58.6541851,11.7968562 C58.7680685,11.8215764 58.8834102,11.8339363 59.0002137,11.8339363 C59.2104599,11.8339363 59.3929626,11.8009765 59.5477272,11.735056 C59.7024917,11.6691355 59.8324336,11.5798695 59.9375568,11.4672552 C60.0426799,11.354641 60.120061,11.222802 60.1697025,11.0717341 C60.2193439,10.9206663 60.2441643,10.7599875 60.2441643,10.5896928 L60.2441643,10.309532 L59.946317,10.309532 Z M60.2441643,9.86457077 L60.2441643,9.7656905 C60.2441643,9.10099199 59.8937592,8.76864772 59.1929384,8.76864772 C58.7140442,8.76864772 58.2964781,8.91971329 57.9402276,9.22184898 L57.5898189,8.8345679 C57.9752703,8.46101833 58.5534388,8.27424634 59.3243416,8.27424634 C59.5229075,8.27424634 59.7141703,8.30171281 59.8981358,8.35664657 C60.0821012,8.41158033 60.2412436,8.49535306 60.3755675,8.60796727 C60.5098915,8.72058148 60.6179331,8.86203379 60.6996955,9.03232845 C60.781458,9.20262311 60.8223385,9.40587498 60.8223385,9.64209015 L60.8223385,11.364255 C60.8223385,11.5125761 60.8296387,11.6677617 60.8442391,11.8298163 C60.8588395,11.9918708 60.8748998,12.1250832 60.8924203,12.2294574 L60.3317665,12.2294574 C60.3142459,12.13607 60.3011058,12.034444 60.2923455,11.9245765 C60.2835852,11.814709 60.2792052,11.7075898 60.2792052,11.6032156 L60.2616847,11.6032156 C60.0923197,11.8614043 59.8922968,12.046803 59.66161,12.1594172 C59.4309231,12.2720314 59.149139,12.3283376 58.8162491,12.3283376 C58.6352038,12.3283376 58.4600012,12.3049911 58.2906362,12.2582974 C58.1212712,12.2116037 57.970889,12.1401909 57.8394851,12.0440568 C57.7080812,11.9479228 57.6029596,11.829817 57.5241173,11.6897359 C57.445275,11.5496548 57.4058544,11.3862293 57.4058544,11.1994545 C57.4058544,10.8863321 57.4919956,10.6405072 57.6642808,10.4619724 C57.8365659,10.2834377 58.052649,10.1502253 58.3125367,10.0623313 C58.5724244,9.97443731 58.8498285,9.91950437 59.1447572,9.89753086 C59.439686,9.87555736 59.7097899,9.86457077 59.9550772,9.86457077 L60.2441643,9.86457077 Z M62.2787244,9.57616997 C62.2787244,9.40587531 62.2743444,9.23283656 62.2655841,9.05704852 C62.2568238,8.88126049 62.2495237,8.6532888 62.2436836,8.37312661 L62.8130976,8.37312661 L62.8130976,9.09000861 L62.830618,9.09000861 C62.8714992,8.98563447 62.9299001,8.88538186 63.0058223,8.78924777 C63.0817446,8.69311369 63.1737259,8.60659432 63.2817691,8.52968705 C63.3898123,8.45277979 63.5153742,8.39098023 63.6584584,8.34428653 C63.8015427,8.29759284 63.963605,8.27424634 64.1446504,8.27424634 C64.3081752,8.27424634 64.4512573,8.29072622 64.573901,8.32368648 L64.4600182,8.85928797 C64.3840959,8.83182109 64.2731343,8.81808786 64.12713,8.81808786 C63.9052034,8.81808786 63.7154006,8.85791423 63.5577159,8.93756819 C63.4000313,9.01722214 63.2686293,9.11884808 63.1635062,9.24244904 C63.0583831,9.36605 62.981002,9.49926237 62.9313605,9.64209015 C62.881719,9.78491793 62.8568987,9.92225027 62.8568987,10.0540913 L62.8568987,12.2294574 L62.2787244,12.2294574 L62.2787244,9.57616997 Z M68.3692645,10.0046512 C68.3692645,9.63659496 68.2524628,9.33858378 68.0188558,9.11060867 C67.7852489,8.88263356 67.4582041,8.76864772 67.0377117,8.76864772 C66.8508261,8.76864772 66.6697835,8.8029808 66.4945783,8.871648 C66.3193731,8.94031521 66.1660708,9.03232788 66.034667,9.14768877 C65.9032631,9.26304967 65.7981415,9.39488872 65.7192992,9.54320988 C65.6404568,9.69153103 65.6010363,9.84534326 65.6010363,10.0046512 L68.3692645,10.0046512 Z M65.5835158,10.4496124 C65.6010364,10.6418806 65.6506771,10.8231593 65.7324395,10.9934539 C65.8142019,11.1637486 65.9222435,11.3106942 66.0565675,11.4342951 C66.1908915,11.5578961 66.3456537,11.6554021 66.5208589,11.726816 C66.6960641,11.7982299 66.8858669,11.8339363 67.090273,11.8339363 C67.3998021,11.8339363 67.666986,11.7666434 67.8918327,11.6320557 C68.1166794,11.497468 68.2875019,11.3422824 68.4043053,11.1664944 L68.8510763,11.5125754 C68.6057891,11.8037243 68.3356851,12.0124695 68.0407564,12.1388171 C67.7458276,12.2651648 67.429003,12.3283376 67.090273,12.3283376 C66.786584,12.3283376 66.5047998,12.2775247 66.2449121,12.1758972 C65.9850244,12.0742698 65.7616412,11.9328174 65.5747556,11.751536 C65.3878701,11.5702546 65.2404079,11.3560162 65.1323647,11.1088142 C65.0243215,10.8616123 64.9703007,10.5924409 64.9703007,10.301292 C64.9703007,10.0101431 65.0228615,9.74097166 65.1279846,9.49376974 C65.2331077,9.24656781 65.3791099,9.03232936 65.5659954,8.85104795 C65.7528809,8.66976654 65.9718842,8.52831422 66.2230116,8.42668676 C66.474139,8.32505931 66.745703,8.27424634 67.0377117,8.27424634 C67.3472408,8.27424634 67.6246449,8.32643263 67.8699322,8.43080678 C68.1152194,8.53518092 68.3210824,8.67388659 68.4875274,8.84692794 C68.6539723,9.01996928 68.7809942,9.22322115 68.8685968,9.45668964 C68.9561994,9.69015812 69,9.93872966 69,10.2024117 L69,10.4496124 L65.5835158,10.4496124 Z" id="SlideShare"></path>
                        <path d="M21.5645161,15.1451613 L21.2741935,15.1451613 L21.2741935,12.8387097 L22.1612903,12.8387097 C22.4229404,12.8387097 22.6093184,12.8933686 22.7204301,13.0026882 C22.8315418,13.1120077 22.8870968,13.2706083 22.8870968,13.4784946 C22.8870968,13.586022 22.871864,13.677419 22.8413978,13.7526882 C22.8109317,13.8279574 22.7688175,13.8915768 22.7150538,13.9435484 C22.6612901,13.99552 22.5994627,14.0367382 22.5295699,14.0672043 C22.4596771,14.0976704 22.3853051,14.1200716 22.3064516,14.1344086 L22.9946237,15.1451613 L22.6666667,15.1451613 L21.9784946,14.1344086 L21.5645161,14.1344086 L21.5645161,15.1451613 Z M21.5645161,13.8763441 L21.9354839,13.8763441 C22.0143373,13.8763441 22.0931896,13.8736559 22.172043,13.8682796 C22.2508965,13.8629032 22.3216843,13.8467743 22.3844086,13.8198925 C22.4471329,13.7930106 22.4982077,13.7535845 22.5376344,13.7016129 C22.5770611,13.6496413 22.5967742,13.5752693 22.5967742,13.4784946 C22.5967742,13.4032254 22.5815414,13.3413981 22.5510753,13.2930108 C22.5206092,13.2446234 22.481183,13.2060933 22.4327957,13.1774194 C22.3844084,13.1487454 22.3288534,13.1281363 22.266129,13.1155914 C22.2034047,13.1030465 22.1415774,13.0967742 22.0806452,13.0967742 L21.5645161,13.0967742 L21.5645161,13.8763441 Z M20,14 C20,13.724013 20.0528669,13.465055 20.1586022,13.2231183 C20.2643374,12.9811816 20.4077052,12.7697142 20.5887097,12.5887097 C20.7697142,12.4077052 20.9811816,12.2643374 21.2231183,12.1586022 C21.465055,12.0528669 21.724013,12 22,12 C22.275987,12 22.534945,12.0528669 22.7768817,12.1586022 C23.0188184,12.2643374 23.2302858,12.4077052 23.4112903,12.5887097 C23.5922948,12.7697142 23.7356626,12.9811816 23.8413978,13.2231183 C23.9471331,13.465055 24,13.724013 24,14 C24,14.275987 23.9471331,14.534945 23.8413978,14.7768817 C23.7356626,15.0188184 23.5922948,15.2302858 23.4112903,15.4112903 C23.2302858,15.5922948 23.0188184,15.7356626 22.7768817,15.8413978 C22.534945,15.9471331 22.275987,16 22,16 C21.724013,16 21.465055,15.9471331 21.2231183,15.8413978 C20.9811816,15.7356626 20.7697142,15.5922948 20.5887097,15.4112903 C20.4077052,15.2302858 20.2643374,15.0188184 20.1586022,14.7768817 C20.0528669,14.534945 20,14.275987 20,14 Z M20.2903226,14 C20.2903226,14.2365603 20.335125,14.4587803 20.4247312,14.6666667 C20.5143374,14.874553 20.6361999,15.0555548 20.7903226,15.2096774 C20.9444452,15.3638001 21.125447,15.4856626 21.3333333,15.5752688 C21.5412197,15.664875 21.7634397,15.7096774 22,15.7096774 C22.2365603,15.7096774 22.4587803,15.664875 22.6666667,15.5752688 C22.874553,15.4856626 23.0555548,15.3638001 23.2096774,15.2096774 C23.3638001,15.0555548 23.4856626,14.874553 23.5752688,14.6666667 C23.664875,14.4587803 23.7096774,14.2365603 23.7096774,14 C23.7096774,13.7634397 23.664875,13.5412197 23.5752688,13.3333333 C23.4856626,13.125447 23.3638001,12.9444452 23.2096774,12.7903226 C23.0555548,12.6361999 22.874553,12.5143374 22.6666667,12.4247312 C22.4587803,12.335125 22.2365603,12.2903226 22,12.2903226 C21.7634397,12.2903226 21.5412197,12.335125 21.3333333,12.4247312 C21.125447,12.5143374 20.9444452,12.6361999 20.7903226,12.7903226 C20.6361999,12.9444452 20.5143374,13.125447 20.4247312,13.3333333 C20.335125,13.5412197 20.2903226,13.7634397 20.2903226,14 Z" id="R"></path>
                        <path d="M16.68,0 C17.4,0 18,0.6 18,1.32 L18,16.68 C18,17.4 17.4,18 16.68,18 L1.32,18 C0.6,18 0,17.4 0,16.74 L0,1.32 C0,0.6 0.6,0 1.32,0 L16.68,0 Z M4.02,2.46 C3.12,2.46 2.46,3.18 2.46,4.02 C2.46,4.86 3.18,5.58 4.02,5.58 C4.86,5.58 5.58,4.86 5.58,4.02 C5.58,3.18 4.86,2.46 4.02,2.46 Z M2.64,15.36 L5.34,15.36 L5.34,6.72 L2.64,6.72 L2.64,15.36 Z M7.02,6.72 L7.02,15.36 L9.66,15.36 L9.66,11.1 C9.66,9.96 9.9,8.88 11.28,8.88 C12.66,8.88 12.66,10.14 12.66,11.16 L12.66,15.36 L15.3,15.36 L15.3,10.62 C15.3,8.34 14.82,6.54 12.12,6.54 C10.8,6.54 9.96,7.26 9.6,7.92 L9.6,6.72 L7.02,6.72 Z" id="icon-linkedin" fill-rule="nonzero"></path>
                    </g>
                </g>
            </g>
        </g>
    </g>
</svg>