<?xml version="1.0" encoding="UTF-8"?>
<svg width="18px" height="18px" viewBox="0 0 18 18" version="1.1" xmlns="http://www.w3.org/2000/svg" xmlns:xlink="http://www.w3.org/1999/xlink">
    <!-- Generator: Sketch 51.2 (57519) - http://www.bohemiancoding.com/sketch -->
    <title>icon-linkedin</title>
    <desc>Created with Sketch.</desc>
    <defs></defs>
    <g id="Observatorio" stroke="none" stroke-width="1" fill="none" fill-rule="evenodd">
        <g id="1400_home" transform="translate(-1061.000000, -5360.000000)" fill="#FFFFFF" fill-rule="nonzero">
            <g id="footer" transform="translate(0.000000, 5182.000000)">
                <g id="social-icons" transform="translate(1061.000000, 178.000000)">
                    <path d="M16.68,0 C17.4,0 18,0.6 18,1.32 L18,16.68 C18,17.4 17.4,18 16.68,18 L1.32,18 C0.6,18 0,17.4 0,16.74 L0,1.32 C0,0.6 0.6,0 1.32,0 L16.68,0 Z M4.02,2.46 C3.12,2.46 2.46,3.18 2.46,4.02 C2.46,4.86 3.18,5.58 4.02,5.58 C4.86,5.58 5.58,4.86 5.58,4.02 C5.58,3.18 4.86,2.46 4.02,2.46 Z M2.64,15.36 L5.34,15.36 L5.34,6.72 L2.64,6.72 L2.64,15.36 Z M7.02,6.72 L7.02,15.36 L9.66,15.36 L9.66,11.1 C9.66,9.96 9.9,8.88 11.28,8.88 C12.66,8.88 12.66,10.14 12.66,11.16 L12.66,15.36 L15.3,15.36 L15.3,10.62 C15.3,8.34 14.82,6.54 12.12,6.54 C10.8,6.54 9.96,7.26 9.6,7.92 L9.6,6.72 L7.02,6.72 Z" id="icon-linkedin"></path>
                </g>
            </g>
        </g>
    </g>
</svg>