<?xml version="1.0" encoding="UTF-8"?>
<svg width="16px" height="12px" viewBox="0 0 16 12" version="1.1" xmlns="http://www.w3.org/2000/svg" xmlns:xlink="http://www.w3.org/1999/xlink">
    <!-- Generator: Sketch 51.2 (57519) - http://www.bohemiancoding.com/sketch -->
    <title>Icon/M/Mail</title>
    <desc>Created with Sketch.</desc>
    <defs>
        <path d="M0,2 L0,4.14285714 L0,14 L16,14 L16,4.14285714 L16,2 L0,2 Z M1,3.07142857 L15,3.07142857 L15,3.56428571 L8,8.42857143 L1,3.56428571 L1,3.07142857 Z M8,9.71428571 L9.2,8.87857143 L13.98,12.9285714 L1.92,12.9285714 L6.74,8.83571429 L8,9.71428571 Z M5.86,8.21428571 L1,12.35 L1,4.85 L5.86,8.21428571 Z M15,12.4142857 L10.1,8.25714286 L15,4.82857143 L15,12.4142857 Z" id="path-1"></path>
    </defs>
    <g id="Observatorio" stroke="none" stroke-width="1" fill="none" fill-rule="evenodd">
        <g id="1400_home" transform="translate(-827.000000, -5364.000000)">
            <g id="footer" transform="translate(0.000000, 5182.000000)">
                <g id="Group" transform="translate(827.000000, 175.000000)">
                    <g id="Icon/M/Mail" transform="translate(0.000000, 5.000000)">
                        <mask id="mask-2" fill="white">
                            <use xlink:href="#path-1"></use>
                        </mask>
                        <use id="icon-mail" fill="#000000" fill-rule="nonzero" xlink:href="#path-1"></use>
                        <g id="Mixin/Fill/Secondary/White" mask="url(#mask-2)" fill="#FFFFFF" fill-rule="evenodd">
                            <rect id="Rectangle" x="0" y="0" width="16" height="16"></rect>
                        </g>
                    </g>
                </g>
            </g>
        </g>
    </g>
</svg>