<?xml version="1.0" encoding="UTF-8"?>
<svg width="21px" height="18px" viewBox="0 0 21 18" version="1.1" xmlns="http://www.w3.org/2000/svg" xmlns:xlink="http://www.w3.org/1999/xlink">
    <!-- Generator: Sketch 51.2 (57519) - http://www.bohemiancoding.com/sketch -->
    <title>Icon/M/Linkedin/White</title>
    <desc>Created with Sketch.</desc>
    <defs></defs>
    <g id="Observatorio" stroke="none" stroke-width="1" fill="none" fill-rule="evenodd">
        <g id="1400_1" transform="translate(-942.000000, -2529.000000)" fill="#333333" fill-rule="nonzero">
            <g id="evento" transform="translate(773.000000, 2493.000000)">
                <g id="Group-2" transform="translate(65.000000, 30.000000)">
                    <g id="Icon/M/Twitter/Black" transform="translate(100.000000, 0.000000)">
                        <path d="M25.025641,8.01876223 C24.2517794,8.36133778 23.421437,8.59366859 22.5490089,8.697392 C23.4398173,8.16446238 24.1217088,7.31916126 24.4448926,6.31501436 C23.6092938,6.80854144 22.6869469,7.16690546 21.7041684,7.36117232 C20.9171828,6.52242685 19.7977717,6 18.5561575,6 C16.1741409,6 14.2427677,7.92952304 14.2427677,10.3079536 C14.2427677,10.6452777 14.2808681,10.974742 14.354458,11.2897906 C10.7702675,11.1099393 7.59205799,9.39438444 5.46492614,6.78753591 C5.09309463,7.42285034 4.88156672,8.16312379 4.88156672,8.95333688 C4.88156672,10.4484023 5.64361003,11.7675636 6.79981604,12.5393453 C6.09294795,12.5157313 5.42813121,12.3214644 4.84611166,11.9985558 L4.84611166,12.0523739 C4.84611166,14.1394041 6.33340334,15.8812159 8.30548801,16.2776439 C7.94416934,16.3747773 7.56316486,16.4285954 7.16900216,16.4285954 C6.89048067,16.4285954 6.62113215,16.4010343 6.35704005,16.3485204 C6.90621557,18.0614668 8.49863564,19.3071087 10.3853464,19.3412598 C8.90987311,20.4963583 7.0494444,21.1828479 5.02874644,21.1828479 C4.680586,21.1828479 4.33764761,21.1618424 4,21.1237785 C5.909042,22.3484491 8.17545177,23.0625 10.6113381,23.0625 C18.5457134,23.0625 22.8827743,16.4968634 22.8827743,10.8028192 L22.8683105,10.2449713 C23.7157277,9.64113082 24.4488435,8.88246036 25.025641,8.01876223 Z" id="twitter_icon"></path>
                    </g>
                </g>
            </g>
        </g>
    </g>
</svg>