<?xml version="1.0" encoding="UTF-8"?>
<svg width="42px" height="17px" viewBox="0 0 42 17" version="1.1" xmlns="http://www.w3.org/2000/svg" xmlns:xlink="http://www.w3.org/1999/xlink">
    <!-- Generator: Sketch 51.2 (57519) - http://www.bohemiancoding.com/sketch -->
    <title>icon-youtube</title>
    <desc>Created with Sketch.</desc>
    <defs></defs>
    <g id="Observatorio" stroke="none" stroke-width="1" fill="none" fill-rule="evenodd">
        <g id="1400_home" transform="translate(-1109.000000, -5360.000000)" fill="#FFFFFF">
            <g id="footer" transform="translate(0.000000, 5182.000000)">
                <g id="social-icons" transform="translate(1061.000000, 178.000000)">
                    <path d="M89.7501431,3.66695158 C89.7501431,3.66695158 90,5.62238232 90,7.57885097 L90,9.41284572 C90,11.3682765 89.7490977,13.3247451 89.7490977,13.3247451 C89.7490977,13.3247451 89.5055134,14.9895598 88.7548973,15.7233653 C87.8035594,16.6865499 86.7361792,16.6907015 86.2458743,16.7477868 C82.7436963,16.9916967 77.4852022,17 77.4852022,17 C77.4852022,17 70.9763783,16.9418768 68.9743871,16.757128 C68.4171749,16.6554124 67.1657996,16.6865499 66.2144617,15.7233653 C65.4638457,14.9895598 65.2192159,13.3247451 65.2192159,13.3247451 C65.2192159,13.3247451 64.9683136,11.3682765 64.9683136,9.4118078 L64.9683136,7.57988888 C64.9683136,5.62342023 65.2192159,3.66695158 65.2192159,3.66695158 C65.2192159,3.66695158 65.4638457,2.00213688 66.2144617,1.26936931 C67.1657996,0.306184749 68.2321344,0.300995177 68.7224393,0.244947799 C72.2246173,0 77.4789297,0 77.4789297,0 L77.4893839,0 C77.4893839,0 82.7436963,0 86.2469197,0.244947799 C86.7361792,0.300995177 87.8035594,0.306184749 88.7548973,1.2683314 C89.5055134,2.00213688 89.7501431,3.6679895 89.7501431,3.6679895 L89.7501431,3.66695158 Z M63.6772122,13.7565175 L62.0839826,13.7565175 L62.0839826,12.8628732 C61.4807716,13.5333659 60.9685128,13.8727639 60.4113006,13.8727639 C59.9209956,13.8727639 59.5812321,13.6485744 59.4108276,13.2437878 C59.3073304,12.9978021 59.2331052,12.6137737 59.2331052,12.0501862 L59.2331052,5.54350082 L60.8263348,5.54350082 L60.8263348,12.2110629 C60.8639701,12.4394041 60.9632856,12.5224373 61.1660983,12.5224373 C61.4713628,12.5224373 61.7473553,12.2650345 62.0839826,11.8042005 L62.0839826,5.54453874 L63.6772122,5.54453874 L63.6772122,13.7565175 Z M58.0601369,8.22754747 L58.0601369,11.1544661 C58.0601369,12.0273521 57.9127318,12.6303804 57.5907405,13.0413945 C57.1662974,13.6018682 56.4679527,13.8976739 55.796789,13.8976739 C55.1266708,13.8976739 54.4398258,13.6018682 54.0164281,13.0413945 C53.6892097,12.6303804 53.5334412,12.0273521 53.5334412,11.1544661 L53.535532,8.23481287 C53.535532,7.35673729 53.7101182,6.69143415 54.0373367,6.27626839 C54.4607343,5.7147567 55.0378096,5.4843397 55.796789,5.4843397 C56.4679527,5.4843397 57.1328438,5.7147567 57.5572869,6.27626839 C57.8782327,6.69143415 58.0601369,7.3505098 58.0601369,8.22754747 Z M51.7739888,9.28622016 L51.7739888,13.7575554 L50.0971251,13.7575554 L50.0971251,9.28622016 C50.0971251,9.28622016 48.3596266,3.80188046 48,2.77849686 L49.7604978,2.77849686 L50.9376478,7.0619696 L52.1085252,2.77849686 L53.8679776,2.77849686 L51.7739888,9.28622016 Z M87.9049658,9.93595458 L87.9049658,8.2732157 C87.9049658,7.40448135 87.7282887,6.76927773 87.4115246,6.35826363 C86.9860361,5.80194151 86.3817797,5.50717382 85.6207094,5.50717382 C84.8460485,5.50717382 84.2407467,5.80194151 83.8016677,6.35826363 C83.4796764,6.76927773 83.2914997,7.44080835 83.2914997,8.30954271 L83.2914997,11.1544661 C83.2914997,12.0180109 83.4984941,12.623115 83.8215308,13.0289395 C84.2606098,13.5842237 84.8638208,13.8613468 85.6583447,13.8613468 C86.4507778,13.8613468 87.0738519,13.5707308 87.4930678,12.9811954 C87.6781083,12.7206789 87.7972869,12.4248733 87.8485128,12.0989682 C87.8621033,11.9515843 87.9028749,11.6153001 87.9028749,11.1409732 L87.9028749,10.9105562 L86.3096453,10.9105562 C86.3096453,11.5021674 86.3127816,11.8529825 86.299191,11.9329019 C86.2113752,12.3273094 85.9939266,12.5234752 85.619664,12.5234752 C85.0990417,12.5234752 84.8795022,12.1456743 84.8847293,11.3952622 L84.8847293,9.93491666 L87.9060112,9.93491666 L87.9049658,9.93595458 Z M80.869247,5.49679468 C80.3120348,5.49679468 79.7569135,5.82892728 79.2666086,6.41431101 L79.2686994,2.86153001 L77.7591039,2.86153001 L77.7591039,13.7565175 L79.2686994,13.7565175 L79.2707903,12.9386409 C79.777822,13.5468588 80.3308525,13.8623848 80.8702925,13.8623848 C81.4745488,13.8623848 81.9157187,13.5478967 82.1185314,12.9438305 C82.2199378,12.5992429 82.2857996,12.0688687 82.2857996,11.3174186 L82.2857996,8.06459491 C82.2857996,7.29550034 82.1843933,6.76927773 82.0829869,6.4423347 C81.8801742,5.83411686 81.4745488,5.49575676 80.8702925,5.49575676 L80.869247,5.49679468 Z M76.5025016,13.7585933 L76.5025016,5.62445815 L74.9092719,5.62445815 L74.9092719,11.8042005 C74.5726447,12.2650345 74.2966521,12.5224373 73.9913877,12.5224373 C73.788575,12.5224373 73.6882141,12.4394041 73.6516241,12.2110629 L73.6516241,5.62549606 L72.05944,5.62549606 L72.05944,12.0501862 C72.05944,12.6137737 72.1326198,12.9978021 72.236117,13.2437878 C72.4065215,13.6485744 72.746285,13.8727639 73.2355445,13.8727639 C73.7938021,13.8727639 74.306061,13.5333659 74.9092719,12.8628732 L74.9092719,13.7565175 L76.5025016,13.7565175 L76.5025016,13.7585933 Z M70.4662103,13.7585933 L70.4662103,4.40698455 L72.3103423,4.40698455 L72.3103423,2.86153001 L67.0298942,2.86256792 L67.0298942,4.40594664 L68.790392,4.40594664 L68.790392,13.7575554 L70.4662103,13.7575554 L70.4662103,13.7585933 Z M56.4679527,11.3194945 L56.4679527,8.06355699 C56.5515868,7.25087002 56.2912757,6.86995543 55.796789,6.86995543 C55.3023024,6.86995543 55.0430367,7.25087002 55.1266708,8.06355699 L55.1266708,11.3163807 C55.0430367,12.1290677 55.3023024,12.5328164 55.796789,12.5328164 C56.2912757,12.5328164 56.5515868,12.1290677 56.4679527,11.3163807 L56.4679527,11.3194945 Z M84.8847293,7.81860919 C84.8847293,7.05885585 85.0990417,6.85127297 85.6060734,6.85127297 C86.1099689,6.85127297 86.3096453,7.07753831 86.3096453,7.82898834 L86.3096453,8.71640515 L84.8847293,8.71848098 L84.8847293,7.81860919 Z M80.69257,11.3994139 C80.69257,12.2131388 80.4960299,12.5245131 80.0579963,12.5245131 C79.8081394,12.5245131 79.5206472,12.3999634 79.2666086,12.1539777 L79.2686994,7.2207705 C79.5216926,6.97789853 79.8081394,6.84919714 80.0579963,6.84919714 C80.4960299,6.84919714 80.6936154,7.08791746 80.6936154,7.90164235 L80.6936154,11.3973381 L80.69257,11.3994139 Z" id="icon-youtube"></path>
                </g>
            </g>
        </g>
    </g>
</svg>